<svg width="121" height="106" viewBox="0 0 121 106" fill="none" xmlns="http://www.w3.org/2000/svg">
<mask id="mask0_3_3144" style="mask-type:luminance" maskUnits="userSpaceOnUse" x="0" y="0" width="121" height="106">
<path d="M120.406 0H0V105.699H120.406V0Z" fill="white"/>
</mask>
<g mask="url(#mask0_3_3144)">
<path d="M24.1198 0H97.8475C98.9629 0 100.032 0.442234 100.821 1.22942C101.608 2.0166 102.051 3.08423 102.051 4.1975V8.83197H19.9164V4.1975C19.9164 3.08423 20.3593 2.0166 21.1475 1.22942C21.9358 0.442234 23.0051 0 24.1198 0Z" fill="#1C85E8"/>
<path d="M19.9164 8.83203H102.051V83.1781C102.051 84.1857 101.853 85.1836 101.466 86.1145C101.08 87.0456 100.515 87.8914 99.8006 88.604C99.0876 89.3166 98.2401 89.8818 97.3082 90.2675C96.3751 90.653 95.3759 90.8516 94.367 90.8516H27.6007C26.5916 90.8516 25.5923 90.653 24.6601 90.2675C23.7277 89.8818 22.8806 89.3166 22.1671 88.604C21.4535 87.8914 20.8875 87.0456 20.5013 86.1145C20.1152 85.1836 19.9164 84.1857 19.9164 83.1781V8.83203Z" fill="url(#paint0_linear_3_3144)"/>
<path d="M73.5805 61.5701H51.0521V72.4956H73.5805V61.5701Z" fill="#FFCCB3"/>
<path d="M50.9196 68.3055C48.2776 70.9015 47.2381 83.6862 47.3772 90.8515H78.8279C78.8279 90.8515 78.7714 75.2261 76.387 69.9607C74.1942 65.1183 70.5494 72.2613 50.9196 68.3055Z" fill="#1F2D49"/>
<path d="M69.7954 11.8478C69.7954 11.8478 72.4049 8.87546 77.4702 8.44302C82.5355 8.01058 84.0511 12.4409 83.8346 15.1627C83.6181 17.8846 79.6485 23.5063 80.4424 25.8848C81.2364 28.2632 77.5031 27.1101 77.0962 22.3531C76.6893 17.5963 75.1736 10.9656 71.0597 13.344L69.7954 11.8478Z" fill="#080B09"/>
<path d="M70.5878 10.4563C70.5878 10.4563 71.2118 10.0952 71.6637 10.9376C72.1157 11.78 72.9598 13.4906 71.89 13.9441C70.8201 14.3976 70.5878 10.4563 70.5878 10.4563Z" fill="#1C85E8"/>
<path d="M56.1187 37.851C56.1187 37.851 60.1651 42.3863 58.8194 43.841C56.1541 46.8308 49.065 52.4501 46.7422 54.3101C46.6419 54.3868 46.5275 54.4429 46.4053 54.4751C46.2832 54.5075 46.1559 54.5153 46.0308 54.4982C45.9057 54.4811 45.7851 54.4395 45.6763 54.3756C45.5673 54.3117 45.4721 54.2271 45.3961 54.1263L39.9035 46.9151C39.6887 46.6375 39.5886 46.2882 39.6235 45.9391C39.6586 45.59 39.8262 45.2676 40.0918 45.038L50.7311 35.8765L56.1187 37.851Z" fill="#1C85E8"/>
<path d="M49.7301 43.6169C49.7301 43.6169 44.6874 46.6099 44.2329 52.6235L45.2372 53.9119C45.2372 53.9119 45.8678 55.0093 46.7417 54.3103C47.6156 53.6113 51.6579 50.3778 51.6579 50.3778L49.7301 43.6169Z" fill="#0E66AF"/>
<path d="M54.4455 45.8968C57.591 45.8968 60.1409 43.3505 60.1409 40.2094C60.1409 37.0684 57.591 34.522 54.4455 34.522C51.3001 34.522 48.7501 37.0684 48.7501 40.2094C48.7501 43.3505 51.3001 45.8968 54.4455 45.8968Z" fill="#1C85E8"/>
<path d="M39.6143 58.0375L34.637 51.4566L39.3488 47.8037L40.0873 47.21L45.2502 53.9523L44.3512 54.5979L39.6143 58.0375Z" fill="#FFCCB3"/>
<path d="M44.3514 54.5979C43.0181 52.8154 40.5109 49.3316 39.349 47.8037L40.0875 47.21L45.2374 53.9121L44.3514 54.5979Z" fill="#FF967C"/>
<path d="M37.05 58.9502C39.3333 58.9502 41.1844 57.1018 41.1844 54.8216C41.1844 52.5413 39.3333 50.6929 37.05 50.6929C34.7665 50.6929 32.9154 52.5413 32.9154 54.8216C32.9154 57.1018 34.7665 58.9502 37.05 58.9502Z" fill="#FFCCB3"/>
<path d="M40.5507 52.6005C40.5507 52.6005 27.2137 33.0417 26.5972 31.3807C25.9972 29.7585 22.847 33.662 22.847 33.662L33.1691 56.151L40.5507 52.6005Z" fill="#FFCCB3"/>
<path d="M58.9119 25.3252L57.3086 36.4877C57.3086 36.4877 56.8876 37.9693 58.7556 38.1936C60.6235 38.4179 64.6064 37.9167 66.0288 36.403C67.4514 34.8893 66.9538 34.1393 66.9538 34.1393L63.9369 22.0234L58.9119 25.3252Z" fill="#FFCCB3"/>
<path d="M58.6886 26.7693L62.6105 25.386L57.7517 32.5771L58.6886 26.7693Z" fill="#FF967C"/>
<path d="M54.4743 11.5369C54.4743 11.5369 51.1096 19.4316 52.8632 24.8424C54.0068 28.3712 56.4972 29.0056 62.2008 26.3611C67.4305 23.9365 68.7889 22.1023 68.7889 22.1023L69.5601 13.3017C69.5601 13.3017 57.8914 4.50031 54.4743 11.5369Z" fill="#FFCCB3"/>
<path d="M57.2803 33.2781C57.2803 33.2781 52.9701 34.474 52.0954 35.1728C51.2207 35.8715 50.5845 41.5514 49.2917 44.3569C47.3778 48.5103 46.1387 50.7199 49.3541 55.2843C51.2933 58.0373 50.6339 65.0361 50.6339 65.0361H74.2449C73.5295 51.2744 76.6951 35.0516 76.6951 35.0516L66.039 32.5996C63.6364 33.0132 57.2803 33.2781 57.2803 33.2781Z" fill="#1C85E8"/>
<path d="M56.5264 33.5001C56.5264 33.5001 56.8451 31.3368 57.8637 31.1845C58.8823 31.0322 65.1068 30.0973 66.075 30.5044C67.0431 30.9115 68.2151 33.5001 68.2151 33.5001C68.2151 33.5001 66.2278 38.3405 63.3743 38.5949C60.5208 38.8494 55.6094 37.9709 56.1288 36.1712C56.6482 34.3716 56.5264 33.5001 56.5264 33.5001Z" fill="#1C85E8"/>
<path d="M54.5878 34.1578C54.5878 34.1578 55.2763 38.3326 59.0157 38.2667C62.7551 38.2008 68.1891 32.5996 68.1891 32.5996" stroke="white" stroke-width="1.35709" stroke-miterlimit="10"/>
<path d="M71.5306 40.2092C71.5306 40.2092 67.8148 42.6624 68.9094 45.1379C70.1402 47.9212 70.1296 55.0895 66.5973 55.5388C60.2948 56.3403 63.0331 57.4408 65.9472 58.1441C68.8614 58.8473 67.6683 58.8481 67.6683 61.8628C67.6683 64.0084 74.4205 65.8687 74.2452 64.135C73.071 52.5359 77.9514 45.1913 71.5306 40.2092Z" fill="#0E66AF"/>
<path d="M54.1752 23.1523L57.3051 23.307C57.2939 23.3454 57.2769 23.3981 57.2524 23.46C57.1992 23.5943 57.1109 23.7713 56.9708 23.9426C56.6931 24.2824 56.2081 24.6052 55.3702 24.5206C54.8411 24.4194 54.5402 24.0641 54.3699 23.7278C54.2846 23.5594 54.2329 23.3968 54.2026 23.2764C54.1901 23.227 54.1812 23.1848 54.1752 23.1523Z" fill="#E56441" stroke="#E56441"/>
<path d="M54.3815 17.9626C54.5123 17.4783 54.3516 17.014 54.0226 16.9254C53.6936 16.8367 53.3209 17.1574 53.19 17.6416C53.0593 18.1258 53.22 18.5902 53.549 18.6788C53.8779 18.7674 54.2507 18.4468 54.3815 17.9626Z" fill="#080B09"/>
<path d="M59.2237 19.341C59.3544 18.8567 59.1939 18.3924 58.8648 18.3038C58.5358 18.2152 58.163 18.5358 58.0322 19.02C57.9014 19.5042 58.0621 19.9685 58.3911 20.0572C58.7202 20.1459 59.0928 19.8252 59.2237 19.341Z" fill="#080B09"/>
<path d="M53.1577 15.4614L55.6191 16.168C55.6619 16.1765 55.7064 16.1692 55.7443 16.1474C55.7823 16.1257 55.8109 16.091 55.8252 16.0497C55.8364 15.9722 55.8318 15.8932 55.8117 15.8175C55.7916 15.7416 55.7562 15.6708 55.7078 15.6091C55.6595 15.5473 55.5991 15.496 55.5303 15.4583C55.4616 15.4206 55.3859 15.397 55.3078 15.3893L53.1936 15.1672C53.0315 15.1234 52.9549 15.4068 53.1577 15.4614Z" fill="#080B09"/>
<path d="M61.5719 17.5624L58.2339 16.8803C58.2641 16.7812 58.3147 16.6893 58.3826 16.6109C58.4505 16.5324 58.534 16.469 58.6279 16.4248C58.7217 16.3806 58.8238 16.3564 58.9277 16.354C59.0315 16.3515 59.1346 16.3708 59.2305 16.4106L61.6671 17.371C61.748 17.3927 61.6934 17.5952 61.5719 17.5624Z" fill="#080B09"/>
<path d="M55.8697 18.1008L54.2865 20.2299L54.8827 21.0717" stroke="#E56441" stroke-width="2.23881" stroke-linecap="round"/>
<path d="M58.8144 41.3297C59.121 41.3297 59.3695 40.6441 59.3695 39.7983C59.3695 38.9526 59.121 38.2668 58.8144 38.2668C58.5078 38.2668 58.2593 38.9526 58.2593 39.7983C58.2593 40.6441 58.5078 41.3297 58.8144 41.3297Z" fill="white"/>
<path d="M84.3995 62.3999L76.1685 63.0734L74.7634 57.1166L73.0707 52.536L81.733 51.5007L82.8159 56.6272L84.3995 62.3999Z" fill="#FFCCB3"/>
<path d="M82.0256 52.885L82.3292 54.3225L73.7989 54.5058L73.2377 52.9873L82.0256 52.885Z" fill="#FF967C"/>
<path d="M75.2796 46.2479C78.4251 46.2479 80.9749 43.7016 80.9749 40.5605C80.9749 37.4194 78.4251 34.873 75.2796 34.873C72.1341 34.873 69.5842 37.4194 69.5842 40.5605C69.5842 43.7016 72.1341 46.2479 75.2796 46.2479Z" fill="#1C85E8"/>
<path d="M74.1801 37.8866C74.1801 37.8866 80.1825 36.9027 80.6922 38.8167C81.7934 42.6656 83.1471 48.8444 83.4763 51.7994C83.4874 51.925 83.4735 52.0516 83.4354 52.1719C83.3974 52.2921 83.3358 52.4037 83.2543 52.5001C83.1729 52.5964 83.0731 52.6758 82.9608 52.7334C82.8485 52.7911 82.7259 52.826 82.5999 52.8361L73.56 53.6067C73.2101 53.6391 72.8612 53.5366 72.5847 53.3201C72.3082 53.1036 72.1252 52.7896 72.0734 52.4427L69.6251 41.3728L74.1801 37.8866Z" fill="#1C85E8"/>
<path d="M56.573 10.7865C56.573 10.7865 56.7859 14.6212 60.039 16.4794C60.039 16.4794 60.9903 19.4205 64.5406 20.1122C64.5406 20.1122 64.3309 17.409 66.0231 17.4376C68.8965 17.4862 67.4832 21.8388 65.5405 22.5528C64.2202 23.0382 63.4251 24.7606 65.3848 28.686C69.8849 27.0832 73.0497 20.6102 71.8089 13.4287C70.8154 7.67771 63.6756 5.7997 62.2087 5.98703C62.2087 5.98703 56.1167 3.88541 52.909 9.64927C50.1669 14.5765 52.7278 17.5171 52.7278 17.5171L54.1892 13.1319C54.1892 13.1319 54.7996 13.5599 56.573 10.7865Z" fill="#080B09"/>
<path d="M84.4302 76.6098H62.6291C62.2074 76.6098 61.8003 76.456 61.484 76.1775C61.1679 75.8988 60.9644 75.5145 60.9121 75.0966L58.8998 59.0594C58.8692 58.8163 58.8909 58.5694 58.9633 58.3352C59.0356 58.101 59.157 57.8849 59.3194 57.7011C59.4818 57.5174 59.6814 57.3702 59.9052 57.2695C60.1289 57.1686 60.3715 57.1165 60.6168 57.1165H86.4424C86.6877 57.1165 86.9304 57.1686 87.154 57.2695C87.3778 57.3702 87.5774 57.5174 87.7398 57.7011C87.9022 57.8849 88.0237 58.101 88.096 58.3352C88.1684 58.5694 88.19 58.8163 88.1594 59.0594L86.1472 75.0966C86.0947 75.5145 85.8913 75.8988 85.5752 76.1775C85.2589 76.456 84.8518 76.6098 84.4302 76.6098Z" fill="url(#paint1_linear_3_3144)"/>
<path d="M73.5808 68.0923C74.426 68.0923 75.1111 67.4081 75.1111 66.5643C75.1111 65.7203 74.426 65.0361 73.5808 65.0361C72.7358 65.0361 72.0507 65.7203 72.0507 66.5643C72.0507 67.4081 72.7358 68.0923 73.5808 68.0923Z" fill="white"/>
<path d="M23.4141 34.947L22.1004 32.4301C22.1004 32.4301 17.4552 29.7766 16.9168 28.8173C16.3783 27.8578 16.1668 25.1186 17.1198 24.4172C17.1198 24.4172 13.4137 21.6375 14.0446 21.0742C14.6734 20.4702 21.955 25.8718 21.955 25.8718C21.955 25.8718 21.0685 21.8923 22.4157 21.7058C22.7806 23.2483 23.4058 24.7174 24.2644 26.0503C25.6828 28.2402 25.8576 30.2016 25.8576 30.2016L27.5292 33.4054L23.4141 34.947Z" fill="#FFCCB3"/>
<path d="M17.3696 24.4873L19.6141 25.8998" stroke="#FF967C" stroke-width="2.87188" stroke-linecap="round" stroke-linejoin="round"/>
<path d="M17.0356 26.1035L18.9405 27.2859" stroke="#FF967C" stroke-width="2.87188" stroke-linecap="round" stroke-linejoin="round"/>
<path d="M17.4048 27.8503L18.6753 28.6522" stroke="#FF967C" stroke-width="2.87188" stroke-linecap="round" stroke-linejoin="round"/>
<path d="M26.1492 5.48433C26.74 5.48433 27.2189 5.00609 27.2189 4.41611C27.2189 3.82614 26.74 3.3479 26.1492 3.3479C25.5584 3.3479 25.0795 3.82614 25.0795 4.41611C25.0795 5.00609 25.5584 5.48433 26.1492 5.48433Z" fill="white"/>
<path d="M30.4699 5.48433C31.0607 5.48433 31.5396 5.00609 31.5396 4.41611C31.5396 3.82614 31.0607 3.3479 30.4699 3.3479C29.8791 3.3479 29.4001 3.82614 29.4001 4.41611C29.4001 5.00609 29.8791 5.48433 30.4699 5.48433Z" fill="white"/>
<path d="M34.5294 5.48433C35.1202 5.48433 35.5991 5.00609 35.5991 4.41611C35.5991 3.82614 35.1202 3.3479 34.5294 3.3479C33.9386 3.3479 33.4597 3.82614 33.4597 4.41611C33.4597 5.00609 33.9386 5.48433 34.5294 5.48433Z" fill="white"/>
<path opacity="0.7" d="M2.39651 4.28503C6.69726 7.94776 18.0393 16.299 32.4442 16.698C32.7388 16.7068 33.0182 16.83 33.2233 17.0414C33.4284 17.2527 33.5429 17.5357 33.5425 17.83V40.6222C33.5426 40.913 33.4309 41.1927 33.2302 41.4033C33.0295 41.614 32.7553 41.7396 32.4645 41.754C28.1335 41.9691 11.7101 41.9441 0.827829 30.3095C0.633747 30.1006 0.526371 29.8258 0.527227 29.5409V5.1482C0.527104 4.93192 0.588986 4.72004 0.705655 4.53771C0.822325 4.3555 0.988769 4.21029 1.18542 4.11956C1.38195 4.0287 1.60061 3.99597 1.81524 4.0254C2.02987 4.05471 2.23153 4.14471 2.39651 4.28503Z" fill="#FEBB94"/>
<path d="M4.02759 11.0015C4.02759 11.0015 7.4214 14.2945 12.0603 16.3401" stroke="white" stroke-width="7.4328" stroke-miterlimit="10" stroke-linecap="round"/>
<path opacity="0.4" d="M4.02759 14.9939C4.02759 14.9939 8.75087 19.3934 14.8951 21.0269" stroke="white" stroke-width="7.4328" stroke-miterlimit="10" stroke-linecap="round"/>
<path d="M3.32446 29.5924V20.0723L6.66691 22.4608V32.211L3.32446 29.5924Z" fill="white"/>
<path d="M8.96643 33.4394V26.6562L12.3089 28.6524V35.3578L8.96643 33.4394Z" fill="white"/>
<path d="M23.2588 38.7495V31.9664L19.9164 31.5095V38.215L23.2588 38.7495Z" fill="white"/>
<path d="M28.7486 39.0398V27.1638H25.4061V38.9623L28.7486 39.0398Z" fill="white"/>
<path d="M14.4414 36.4113V33.3101L17.7839 34.2487V37.62L14.4414 36.4113Z" fill="white"/>
<g opacity="0.7">
<path d="M10.7677 51.5134C15.0685 54.6669 26.4105 62.8963 40.8154 61.5894C40.9555 61.573 41.0976 61.5868 41.2318 61.63C41.3661 61.6733 41.4895 61.7448 41.5937 61.8398C41.6979 61.9348 41.7805 62.0511 41.8356 62.1808C41.8908 62.3105 41.9174 62.4505 41.9138 62.5913V85.3836C41.9064 85.6853 41.7953 85.9752 41.5988 86.2046C41.4026 86.434 41.133 86.5888 40.8357 86.643C36.5046 87.3711 18.4917 87.0115 9.19894 77.7238C9.10282 77.6275 9.02675 77.5132 8.97514 77.3872C8.92354 77.2615 8.89749 77.1266 8.89846 76.9907V52.598C8.89846 51.632 10.0317 50.9737 10.7677 51.5134Z" fill="#96BAFD"/>
</g>
<path d="M79.9905 75.9554C79.9905 75.9554 81.1428 76.0509 80.9693 76.6316C80.7956 77.2122 79.767 76.9443 78.8276 77.5248C77.8884 78.1055 74.1748 78.5199 72.32 78.2112C70.465 77.9025 69.9498 75.9554 69.9498 75.9554C69.9498 75.9554 69.6396 74.1082 72.9161 73.9185C76.1926 73.7289 77.7174 74.7788 78.2873 75.9169L79.9905 75.9554Z" fill="#FFCCB3"/>
<path d="M71.3434 74.2058L72.051 76.1064" stroke="#E56441" stroke-width="2.23881" stroke-linecap="round"/>
<path d="M73.1763 73.8962L73.8839 75.7969" stroke="#E56441" stroke-width="2.23881" stroke-linecap="round"/>
<path d="M75.1116 74.0571L75.8192 75.9577" stroke="#E56441" stroke-width="2.23881" stroke-linecap="round"/>
<path opacity="0.7" d="M114.86 53.3674C108.861 58.4766 93.0401 70.1258 72.9468 70.6823C72.5359 70.6946 72.146 70.8665 71.8598 71.1614C71.5738 71.4562 71.4141 71.8508 71.4147 72.2612V104.054C71.4144 104.46 71.5705 104.85 71.8504 105.144C72.1304 105.438 72.5128 105.613 72.9183 105.633C78.9597 105.933 101.868 105.898 117.049 89.6691C117.319 89.3776 117.469 88.9944 117.468 88.5968V54.5715C117.468 54.2698 117.381 53.9744 117.219 53.72C117.056 53.4657 116.824 53.2632 116.55 53.1366C116.276 53.01 115.97 52.9644 115.672 53.0053C115.372 53.0462 115.091 53.1719 114.86 53.3674Z" fill="#1C85E8"/>
<path d="M112.585 62.7366C112.585 62.7366 107.851 67.3301 101.38 70.1835" stroke="white" stroke-width="10.368" stroke-miterlimit="10" stroke-linecap="round"/>
<path opacity="0.4" d="M112.585 68.3054C112.585 68.3054 105.995 74.4421 97.4249 76.7208" stroke="white" stroke-width="10.368" stroke-miterlimit="10" stroke-linecap="round"/>
<path d="M109.508 43.3096H91.1951C90.8358 43.3096 90.48 43.3803 90.1481 43.5175C89.8162 43.6548 89.5146 43.8561 89.2605 44.1097C89.0065 44.3635 88.805 44.6647 88.6675 44.9961C88.53 45.3275 88.4592 45.6828 88.4592 46.0416V51.6992C88.4592 52.058 88.53 52.4133 88.6675 52.7447C88.805 53.0763 89.0065 53.3774 89.2605 53.6311C89.5146 53.8849 89.8162 54.0861 90.1481 54.2234C90.48 54.3606 90.8359 54.4314 91.1951 54.4314H97.6965L99.6141 56.347C99.7939 56.5264 100.037 56.6271 100.292 56.6271C100.546 56.6271 100.789 56.5264 100.969 56.347L102.887 54.4314H109.508C110.233 54.4314 110.93 54.1435 111.443 53.6311C111.956 53.1188 112.244 52.4238 112.244 51.6992V46.0416C112.244 45.317 111.956 44.6222 111.443 44.1097C110.93 43.5974 110.233 43.3096 109.508 43.3096Z" fill="white"/>
<path d="M96.2281 47.0761C95.9835 46.8505 95.6631 46.7253 95.3304 46.7253C94.9978 46.7253 94.6774 46.8505 94.4328 47.0761L94.0948 47.3879L93.7565 47.0761C93.5122 46.8505 93.1916 46.7253 92.8589 46.7253C92.5261 46.7253 92.2056 46.8505 91.9611 47.0761C91.8321 47.1927 91.729 47.3351 91.6583 47.494C91.5877 47.6529 91.5513 47.8247 91.5513 47.9985C91.5513 48.1723 91.5877 48.3442 91.6583 48.5031C91.729 48.662 91.8321 48.8043 91.9611 48.9209L94.0948 50.8957L96.2281 48.9469C96.3626 48.831 96.4715 48.6874 96.5448 48.5261C96.6194 48.3646 96.6573 48.1891 96.6573 48.0115C96.6573 47.834 96.6194 47.6585 96.5448 47.497C96.4715 47.3356 96.3626 47.192 96.2281 47.0761Z" fill="#F4608A"/>
<path d="M98.6105 48.2298C98.6289 47.9906 98.7218 47.8032 98.8882 47.6679C99.0545 47.5327 99.271 47.4651 99.5363 47.4651C99.7137 47.4651 99.8665 47.4976 99.9937 47.5627C100.125 47.6251 100.222 47.7109 100.287 47.8201C100.354 47.9294 100.389 48.053 100.389 48.1909C100.389 48.3521 100.342 48.4913 100.248 48.6083C100.156 48.7254 100.037 48.8009 99.8885 48.8347V48.8541C100.057 48.8958 100.192 48.9777 100.291 49.1C100.39 49.2222 100.44 49.3822 100.44 49.5799C100.44 49.7282 100.406 49.8621 100.337 49.9818C100.27 50.0989 100.169 50.1912 100.033 50.2589C99.8971 50.3264 99.7344 50.3603 99.5449 50.3603C99.2685 50.3603 99.0423 50.2888 98.8649 50.1457C98.6876 50 98.5885 49.7946 98.5677 49.5292H98.9114C98.9297 49.6853 98.9933 49.8128 99.1034 49.9116C99.2122 50.0104 99.359 50.0598 99.5412 50.0598C99.7234 50.0598 99.8616 50.0131 99.9546 49.9194C100.051 49.8232 100.1 49.6996 100.1 49.5488C100.1 49.3536 100.034 49.2132 99.9044 49.1273C99.7736 49.0415 99.5767 48.9986 99.3137 48.9986H99.2245V48.702H99.3186C99.5571 48.6994 99.7393 48.6603 99.8616 48.585C99.9839 48.5069 100.045 48.3872 100.045 48.2259C100.045 48.088 99.9998 47.9775 99.9081 47.8942C99.82 47.8111 99.6917 47.7694 99.5253 47.7694C99.3639 47.7694 99.233 47.8111 99.134 47.8942C99.0349 47.9775 98.9762 48.0894 98.9591 48.2298H98.6105ZM101.345 49.8492L100.908 50.8988H100.67L100.955 49.8492H101.345ZM103.495 47.8279H102.124V48.7176C102.184 48.6343 102.272 48.5668 102.389 48.5147C102.507 48.46 102.633 48.4328 102.769 48.4328C102.985 48.4328 103.161 48.4782 103.296 48.5693C103.431 48.6577 103.528 48.7735 103.586 48.9166C103.645 49.0571 103.675 49.2067 103.675 49.3653C103.675 49.5527 103.641 49.7203 103.57 49.8687C103.5 50.017 103.391 50.134 103.246 50.2198C103.102 50.3057 102.924 50.3487 102.71 50.3487C102.437 50.3487 102.216 50.2783 102.046 50.1379C101.877 49.9974 101.773 49.8101 101.738 49.576H102.085C102.119 49.7242 102.19 49.84 102.3 49.9233C102.409 50.0066 102.547 50.0481 102.714 50.0481C102.92 50.0481 103.074 49.9871 103.179 49.8648C103.283 49.7399 103.335 49.576 103.335 49.3731C103.335 49.1702 103.283 49.0141 103.179 48.9049C103.074 48.7931 102.921 48.7371 102.718 48.7371C102.58 48.7371 102.459 48.771 102.354 48.8386C102.252 48.9036 102.179 48.9933 102.131 49.1078H101.796V47.5158H103.495V47.8279ZM104.105 50.0559C104.435 49.7907 104.695 49.5734 104.882 49.4043C105.07 49.2327 105.228 49.0544 105.355 48.8697C105.486 48.6824 105.551 48.4991 105.551 48.3196C105.551 48.1506 105.509 48.0178 105.426 47.9216C105.345 47.8228 105.213 47.7733 105.031 47.7733C104.854 47.7733 104.716 47.8293 104.616 47.9411C104.52 48.0503 104.468 48.1973 104.46 48.382H104.116C104.127 48.0907 104.215 47.8657 104.382 47.707C104.549 47.5483 104.764 47.469 105.027 47.469C105.295 47.469 105.508 47.5431 105.663 47.6914C105.822 47.8396 105.902 48.0438 105.902 48.304C105.902 48.5199 105.837 48.7307 105.707 48.9361C105.579 49.139 105.433 49.3186 105.27 49.4746C105.106 49.628 104.895 49.8075 104.64 50.0131H105.984V50.3096H104.105V50.0559ZM108.134 47.7968L107.048 50.3409H106.688L107.79 47.8318H106.282V47.5275H108.134V47.7968Z" fill="#1C85E8"/>
<path opacity="0.7" d="M2.06275 95.3831H15.8695C16.1404 95.3831 16.4086 95.3299 16.6589 95.2263C16.9091 95.1229 17.1366 94.9711 17.3281 94.7799C17.5196 94.5886 17.6715 94.3616 17.7752 94.1116C17.8789 93.8617 17.9323 93.5938 17.9323 93.3234V89.0579C17.9323 88.7874 17.8789 88.5196 17.7752 88.2696C17.6715 88.0197 17.5196 87.7926 17.3281 87.6013C17.1366 87.4101 16.9091 87.2584 16.6589 87.1548C16.4086 87.0513 16.1404 86.998 15.8695 86.998H10.9683L9.5219 85.5537C9.38652 85.4185 9.20283 85.3425 9.01132 85.3425C8.81993 85.3425 8.63624 85.4185 8.50086 85.5537L7.05447 86.998H2.06275C1.5156 86.998 0.990958 87.215 0.604138 87.6013C0.217319 87.9876 0 88.5115 0 89.0579V93.3234C0 93.8697 0.217319 94.3936 0.604138 94.7799C0.990958 95.1661 1.5156 95.3831 2.06275 95.3831Z" fill="#1C85E8"/>
<path d="M8.56689 92.2391C8.81638 92.0391 9.01168 91.8753 9.15318 91.7478C9.29455 91.6184 9.41342 91.484 9.50967 91.3448C9.60787 91.2035 9.65691 91.0653 9.65691 90.93C9.65691 90.8025 9.62548 90.7024 9.56262 90.6299C9.50172 90.5554 9.40254 90.518 9.26508 90.518C9.13153 90.518 9.02746 90.5603 8.95286 90.6446C8.88022 90.727 8.84083 90.8378 8.83496 90.977H8.5757C8.58365 90.7574 8.65042 90.5878 8.77602 90.4681C8.90174 90.3484 9.06378 90.2887 9.26214 90.2887C9.46442 90.2887 9.6245 90.3445 9.7424 90.4564C9.86212 90.5681 9.92205 90.7221 9.92205 90.9182C9.92205 91.081 9.87301 91.2398 9.7748 91.3948C9.67856 91.5478 9.56849 91.6831 9.44485 91.8007C9.32109 91.9165 9.16296 92.0518 8.97047 92.2068H9.98393V92.4303H8.56689V92.2391ZM10.229 91.9802V91.7773L11.263 90.3474H11.5842V91.7478H11.8788V91.9802H11.5842V92.4538H11.319V91.9802H10.229ZM11.3308 90.627L10.5383 91.7478H11.3308V90.627ZM12.1407 90.8623C12.1544 90.6818 12.2241 90.5406 12.3498 90.4387C12.4756 90.3367 12.6386 90.2856 12.8389 90.2856C12.9725 90.2856 13.0873 90.3102 13.1835 90.3593C13.2817 90.4063 13.3554 90.471 13.4045 90.5535C13.4555 90.6358 13.4811 90.729 13.4811 90.8329C13.4811 90.9545 13.4457 91.0594 13.3751 91.1477C13.3063 91.2359 13.2159 91.2928 13.104 91.3183V91.333C13.2317 91.3644 13.3329 91.4262 13.4075 91.5184C13.4821 91.6106 13.5194 91.7311 13.5194 91.8802C13.5194 91.992 13.4938 92.0929 13.4428 92.1832C13.3917 92.2715 13.3151 92.3411 13.213 92.392C13.1109 92.4431 12.9881 92.4686 12.8448 92.4686C12.6366 92.4686 12.4657 92.4146 12.3321 92.3068C12.1986 92.1969 12.124 92.042 12.1083 91.842H12.3675C12.3813 91.9596 12.4293 92.0557 12.5119 92.1302C12.5943 92.2048 12.7044 92.2421 12.8418 92.2421C12.9793 92.2421 13.0834 92.2068 13.1541 92.1361C13.2267 92.0635 13.2632 91.9703 13.2632 91.8566C13.2632 91.7096 13.214 91.6036 13.1158 91.5389C13.0176 91.4741 12.8694 91.4418 12.671 91.4418H12.6032V91.2183H12.6739C12.8546 91.2163 12.991 91.1869 13.0834 91.13C13.1757 91.0711 13.2218 90.9809 13.2218 90.8594C13.2218 90.7555 13.1875 90.672 13.1187 90.6093C13.0519 90.5465 12.9557 90.5151 12.83 90.5151C12.7083 90.5151 12.6101 90.5465 12.5354 90.6093C12.4608 90.672 12.4166 90.7564 12.4028 90.8623H12.1407ZM15.0686 90.8329C15.0254 90.6151 14.8909 90.5063 14.665 90.5063C14.4901 90.5063 14.3595 90.574 14.2732 90.7093C14.1867 90.8426 14.1445 91.0633 14.1465 91.3712C14.1916 91.2692 14.2663 91.1898 14.3704 91.1329C14.4764 91.0741 14.5943 91.0446 14.7238 91.0446C14.9262 91.0446 15.0872 91.1074 15.207 91.233C15.3288 91.3585 15.3897 91.532 15.3897 91.7537C15.3897 91.887 15.3632 92.0067 15.3101 92.1126C15.2591 92.2185 15.1805 92.3029 15.0745 92.3655C14.9704 92.4283 14.8437 92.4597 14.6945 92.4597C14.4921 92.4597 14.3341 92.4146 14.2201 92.3244C14.1063 92.2341 14.0266 92.1097 13.9815 91.9508C13.9364 91.7919 13.9138 91.5958 13.9138 91.3624C13.9138 90.6426 14.1652 90.2827 14.668 90.2827C14.8604 90.2827 15.0116 90.3347 15.1217 90.4387C15.2316 90.5426 15.2964 90.674 15.316 90.8329H15.0686ZM14.668 91.2712C14.5835 91.2712 14.504 91.2889 14.4294 91.3242C14.3546 91.3575 14.2937 91.4094 14.2466 91.4801C14.2015 91.5488 14.1789 91.633 14.1789 91.733C14.1789 91.8822 14.2221 92.0037 14.3085 92.0978C14.395 92.19 14.5186 92.2362 14.6797 92.2362C14.8172 92.2362 14.9262 92.1939 15.0067 92.1097C15.0893 92.0233 15.1305 91.9077 15.1305 91.7625C15.1305 91.6096 15.0912 91.4899 15.0126 91.4036C14.9341 91.3154 14.8191 91.2712 14.668 91.2712Z" fill="white"/>
<path d="M75.552 91.8342C75.552 91.8342 79.9551 90.9136 81.9683 88.7809C84.6357 85.9551 85.251 82.5663 88.1735 82.2177C92.7599 81.6709 95.4187 97.8407 100.987 95.653C106.555 93.4653 105.239 81.3901 108.552 79.3434C110.834 77.9335 112.02 82.1266 115.216 81.0328" stroke="white" stroke-width="10.368" stroke-miterlimit="10" stroke-linecap="round"/>
<path opacity="0.7" d="M32.2192 78.5657C35.5107 79.5041 43.2109 81.1811 53.3008 80.0243C53.463 80.0013 53.6282 80.0138 53.785 80.0609C53.9418 80.108 54.0865 80.1887 54.2089 80.2971C54.3313 80.4057 54.4286 80.5395 54.4941 80.6895C54.5595 80.8394 54.5915 81.0017 54.5879 81.1652V96.7155C54.5804 97.0587 54.452 97.3882 54.2253 97.646C53.9985 97.9038 53.6879 98.0735 53.3482 98.1252C49.7556 98.6156 39.0885 99.6648 31.1394 96.2375C30.936 96.1476 30.7638 95.9998 30.6445 95.8122C30.5253 95.6247 30.4645 95.4061 30.4697 95.1841V79.941C30.4697 79.0394 31.3786 78.3259 32.2192 78.5657Z" fill="url(#paint2_linear_3_3144)"/>
<path d="M2.69736 92.8841H3.14961C3.23363 92.884 3.31409 92.8507 3.37341 92.7914C3.43284 92.7322 3.46623 92.6517 3.46635 92.5679V90.49C3.46623 90.4062 3.43284 90.3259 3.37341 90.2665C3.31409 90.2073 3.23363 90.174 3.14961 90.1738H2.69736C2.61334 90.174 2.53287 90.2073 2.47356 90.2665C2.41413 90.3259 2.38074 90.4062 2.38062 90.49V92.5679C2.38074 92.6517 2.41413 92.7322 2.47356 92.7914C2.53287 92.8507 2.61334 92.884 2.69736 92.8841Z" fill="white"/>
<path d="M4.69341 88.864C4.51253 88.864 4.42203 88.9544 4.42203 89.4061C4.42203 89.8355 4.00574 90.1809 3.73792 90.3589V92.5972C4.02763 92.7312 4.60743 92.9295 5.50765 92.9295H5.79712C5.96785 92.9296 6.13294 92.8695 6.26343 92.7598C6.39392 92.65 6.48136 92.4976 6.5101 92.3296L6.71275 91.1552C6.73072 91.0514 6.72583 90.945 6.69819 90.8434C6.67068 90.7417 6.62127 90.6473 6.5534 90.5667C6.4854 90.4862 6.40065 90.4213 6.30514 90.377C6.2095 90.3326 6.10531 90.3096 5.99989 90.3096H5.14578C5.2419 90.081 5.28825 89.8347 5.28153 89.5869C5.28153 89.0448 4.8744 88.8641 4.69341 88.8641V88.864Z" fill="white"/>
<path d="M17.7671 74.5742C15.3671 73.7292 13.4217 71.1014 13.4217 68.7048C13.4217 66.3082 15.3671 65.0504 17.7671 65.8955V63.1101C13.8899 61.7449 10.7469 63.7769 10.7469 67.6486C10.7469 71.5203 13.8899 75.7655 17.7671 77.1308C21.4804 78.4382 24.5184 76.6283 24.7686 73.0717L22.0956 72.1305C21.9066 74.2865 20.0415 75.3751 17.7671 74.5742Z" fill="white"/>
<path d="M18.6582 62.5339V65.3192C21.0581 66.1643 23.0036 68.7922 23.0036 71.1887C23.0036 71.314 22.9971 71.4354 22.9867 71.5543L25.6596 72.4955C25.6706 72.3386 25.6783 72.1796 25.6783 72.016C25.6783 68.1443 22.5352 63.899 18.6582 62.5339Z" fill="#1C85E8"/>
<path d="M17.7667 74.5742V77.1308" stroke="white" stroke-width="2.42819" stroke-miterlimit="10"/>
<path d="M13.4217 68.7048L10.7469 67.7629" stroke="white" stroke-width="2.42819" stroke-miterlimit="10"/>
<path d="M29.0253 69.1028L33.9884 70.0446" stroke="white" stroke-width="10.368" stroke-miterlimit="10" stroke-linecap="round"/>
<path opacity="0.4" d="M29.0253 76.8687L33.9884 77.8105" stroke="white" stroke-width="10.368" stroke-miterlimit="10" stroke-linecap="round"/>
<path d="M29.0253 73.0647L36.1557 74.4177" stroke="white" stroke-width="10.368" stroke-miterlimit="10" stroke-linecap="round"/>
<g opacity="0.7">
<path d="M118.537 2.48288C114.236 5.6363 106.369 13.5882 89.1982 16.2303C87.8836 16.4325 87.3914 17.3665 87.3914 18.3986V40.139C87.3987 40.4406 87.5099 40.7305 87.7063 40.9599C87.9026 41.1892 88.1721 41.3441 88.4694 41.3982C92.8005 42.1263 109.48 37.8775 119.454 29.3234C120.407 28.5064 120.407 27.1358 120.407 26.851V3.56753C120.407 2.60154 119.273 1.94318 118.537 2.48288Z" fill="url(#paint3_linear_3_3144)"/>
</g>
<path d="M89.6619 20.1042V33.5511C89.6617 33.6682 89.688 33.7837 89.7387 33.8893C89.7893 33.9948 89.8632 34.0876 89.9545 34.1609C90.046 34.234 90.1528 34.2858 90.2669 34.3123C90.3811 34.3387 90.4997 34.3392 90.6142 34.3136C93.0669 33.7651 99.7016 32.179 103.891 30.2052C104.026 30.1419 104.138 30.0419 104.218 29.9168C104.296 29.7918 104.339 29.6468 104.338 29.4989V16.4039C104.339 16.2729 104.306 16.1441 104.242 16.0291C104.18 15.9141 104.09 15.8169 103.978 15.7462C103.868 15.6755 103.742 15.6336 103.611 15.6245C103.48 15.6153 103.35 15.6391 103.23 15.6938C100.895 16.7677 95.2843 19.1134 90.4041 19.3244C90.2036 19.334 90.0146 19.4204 89.8764 19.5656C89.7381 19.7108 89.6613 19.9038 89.6619 20.1042Z" fill="white"/>
<path d="M90.2676 31.3863V32.8006C90.2676 32.9077 90.2923 33.0133 90.3399 33.1093C90.3874 33.2053 90.4564 33.2891 90.5416 33.3541C90.6269 33.419 90.7261 33.4635 90.8312 33.4839C90.9365 33.5044 91.0451 33.5004 91.1485 33.4722L98.4876 31.4685C98.6038 31.437 98.709 31.3762 98.7946 31.2919C98.8802 31.2076 98.9414 31.103 98.9744 30.9877C99.0074 30.8725 99.0099 30.7509 98.9817 30.6345C98.9536 30.518 98.8961 30.4108 98.8154 30.3231L94.8799 26.0955C94.809 26.0197 94.7234 25.9605 94.6268 25.9224C94.5302 25.8841 94.4262 25.8679 94.3228 25.8749C94.2193 25.8818 94.1187 25.9117 94.0283 25.9624C93.9378 26.0132 93.8598 26.0834 93.8 26.1681L90.3951 30.9847C90.3121 31.1022 90.2676 31.2424 90.2676 31.3863Z" fill="#1C85E8"/>
<path opacity="0.6" d="M97.751 28.0693L99.9536 30.4031C100.025 30.4782 100.116 30.5305 100.216 30.5531C100.317 30.5758 100.422 30.5678 100.519 30.5304C101.169 30.2766 102.631 29.7028 103.37 29.3851C103.463 29.345 103.542 29.2788 103.598 29.1944C103.653 29.1101 103.682 29.0113 103.682 28.9103V26.7235C103.682 26.6119 103.646 26.5033 103.58 26.4141L100.483 22.2719C100.427 22.1975 100.352 22.1394 100.267 22.1037C100.181 22.0681 100.087 22.0561 99.9952 22.069C99.9034 22.0821 99.8166 22.1195 99.7432 22.1775C99.6711 22.2355 99.616 22.3118 99.583 22.3986L97.6434 27.5319C97.6092 27.6226 97.6006 27.721 97.6202 27.816C97.6385 27.9111 97.685 27.9987 97.751 28.0693Z" fill="#1C85E8"/>
<path d="M95.8167 24.4253C96.4698 24.4253 96.9993 23.8968 96.9993 23.2447C96.9993 22.5925 96.4698 22.064 95.8167 22.064C95.1637 22.064 94.6342 22.5925 94.6342 23.2447C94.6342 23.8968 95.1637 24.4253 95.8167 24.4253Z" fill="#FEBB94"/>
<path d="M107.747 15.2548C110.781 13.7183 113.701 11.9664 116.485 10.0129" stroke="white" stroke-width="10.368" stroke-miterlimit="10" stroke-linecap="round"/>
<path d="M107.747 20.3555C107.747 20.3555 109.735 19.3877 112.464 17.7346" stroke="white" stroke-width="10.368" stroke-miterlimit="10" stroke-linecap="round"/>
<path d="M107.747 25.342C110.781 23.8053 113.701 22.0536 116.485 20.1001" stroke="white" stroke-width="10.368" stroke-miterlimit="10" stroke-linecap="round"/>
<path d="M107.747 30.9406C110.781 29.404 113.701 27.6522 116.485 25.6987" stroke="white" stroke-width="10.368" stroke-miterlimit="10" stroke-linecap="round"/>
<path d="M91.3474 38.1915C91.9439 38.1915 92.4274 37.7087 92.4274 37.1131C92.4274 36.5175 91.9439 36.0347 91.3474 36.0347C90.751 36.0347 90.2676 36.5175 90.2676 37.1131C90.2676 37.7087 90.751 38.1915 91.3474 38.1915Z" fill="white"/>
<path d="M97.61 36.4467C98.2056 36.4467 98.6899 35.964 98.6899 35.3684C98.6899 34.7728 98.2056 34.29 97.61 34.29C97.0132 34.29 96.5302 34.7728 96.5302 35.3684C96.5302 35.964 97.0132 36.4467 97.61 36.4467Z" fill="white"/>
<path d="M103.257 34.5206C103.854 34.5206 104.337 34.0377 104.337 33.4421C104.337 32.8465 103.854 32.3638 103.257 32.3638C102.661 32.3638 102.177 32.8465 102.177 33.4421C102.177 34.0377 102.661 34.5206 103.257 34.5206Z" fill="white"/>
</g>
<defs>
<linearGradient id="paint0_linear_3_3144" x1="51.0801" y1="-93.408" x2="94.9889" y2="179.233" gradientUnits="userSpaceOnUse">
<stop stop-color="white"/>
<stop offset="1" stop-color="#94B9FF"/>
</linearGradient>
<linearGradient id="paint1_linear_3_3144" x1="72.8005" y1="57.0702" x2="75.8025" y2="98.6694" gradientUnits="userSpaceOnUse">
<stop stop-color="white"/>
<stop offset="1" stop-color="#94B9FF"/>
</linearGradient>
<linearGradient id="paint2_linear_3_3144" x1="41.9284" y1="78.4709" x2="45.8114" y2="121.343" gradientUnits="userSpaceOnUse">
<stop stop-color="white"/>
<stop offset="1" stop-color="#94B9FF"/>
</linearGradient>
<linearGradient id="paint3_linear_3_3144" x1="99.9178" y1="-46.5622" x2="124.6" y2="82.3616" gradientUnits="userSpaceOnUse">
<stop stop-color="white"/>
<stop offset="1" stop-color="#94B9FF"/>
</linearGradient>
</defs>
</svg>
