<svg width="140" height="37" viewBox="0 0 140 37" fill="none" xmlns="http://www.w3.org/2000/svg">
<path d="M139.368 5.78143C139.237 6.02736 139.064 6.26158 138.989 6.52703C138.495 8.24076 136.913 9.49385 135.184 9.51337C133.388 9.53679 131.683 8.19392 131.166 6.35527C130.724 4.78208 131.525 2.99027 133.096 2.03777C135.361 0.663664 138.266 1.82697 138.993 4.3839C139.056 4.60641 139.241 4.79769 139.372 5.00068V5.78143H139.368Z" fill="white" fill-opacity="0.5"/>
<path d="M82.0287 18.4373C82.2694 18.0977 82.5418 17.7737 82.7431 17.4145C85.139 13.1048 88.7861 10.6338 93.7831 10.5791C98.5789 10.5245 102.293 12.6871 104.882 16.7002C105.068 16.989 105.249 17.2779 105.435 17.5707C105.534 17.5512 105.632 17.5316 105.735 17.5121C105.735 17.1881 105.735 16.868 105.735 16.544C105.723 15.1152 105.723 13.6826 105.695 12.2538C105.684 11.7346 105.83 11.4887 106.414 11.4887C113.519 11.5043 120.619 11.5004 127.724 11.5082C127.815 11.5082 127.91 11.5551 128.139 11.6175C128.139 13.14 128.174 14.6858 128.111 16.2317C128.095 16.5596 127.752 16.907 127.499 17.192C124.215 20.8732 120.919 24.5427 117.628 28.2161C117.501 28.3566 117.391 28.5128 117.154 28.8212C117.592 28.8797 117.888 28.9461 118.18 28.95C122.226 28.9851 126.272 28.989 130.314 29.0593C131.174 29.0749 131.348 28.7743 131.344 27.9975C131.316 22.8602 131.348 17.719 131.312 12.5817C131.304 11.7346 131.517 11.4419 132.405 11.477C134.178 11.5473 135.958 11.5082 137.73 11.4926C138.22 11.4926 138.535 11.5551 138.535 12.1679C138.52 19.9715 138.524 27.7789 138.516 35.5824C138.516 35.7034 138.46 35.8283 138.409 36.043C136.4 36.043 134.403 36.043 132.405 36.043C124.053 36.0352 115.701 36.0079 107.349 36.0391C106.394 36.0391 106.236 35.7463 106.13 34.8485C105.834 32.354 106.718 30.5154 108.478 28.7275C111.454 25.7021 114.166 22.423 116.984 19.2454C117.107 19.1048 117.201 18.9409 117.41 18.6364H105.956C106.418 20.5843 107.006 22.4581 106.552 24.5349H88.5295C88.4901 26.6273 90.2978 28.7509 92.4332 29.1959C94.8765 29.7073 96.9921 29.1959 98.6341 27.2167C98.7565 27.0684 99.0249 26.8966 99.1788 26.9318C101.283 27.4002 103.382 27.8999 105.601 28.423C104.843 30.3241 103.702 31.7646 102.258 32.963C95.808 38.3072 86.5165 36.41 82.6799 28.9929C82.522 28.6923 82.2379 28.4542 82.0129 28.1888C81.7839 26.6975 81.3616 25.1985 81.3774 23.7073C81.3971 21.9506 81.7958 20.1979 82.0326 18.4451L82.0287 18.4373ZM99.1236 20.5141C98.6894 18.1172 96.0922 16.5284 93.2305 16.7314C91.3043 16.868 88.8532 18.8042 88.9519 20.5141H99.1236Z" fill="white" fill-opacity="0.5"/>
<path d="M28.0208 24.6169C28.0406 27.1075 30.3496 29.274 33.1126 29.3755C35.0782 29.4458 36.8071 28.8915 38.0899 27.2988C38.2399 27.1153 38.5833 26.9279 38.7885 26.9748C40.8686 27.4237 42.9369 27.9194 45.0131 28.4035C43.8724 32.0105 39.2148 36.1211 33.1797 35.9767C27.1327 35.8323 22.1831 31.5265 21.0424 25.5031C19.9411 19.706 23.2369 13.667 28.7708 11.4731C32.2876 10.0795 35.7848 10.2591 39.1714 11.9299C42.5067 13.5772 44.6263 16.2903 45.9051 19.7919C46.8998 15.0684 49.2286 11.3404 53.7993 9.52517C58.4293 7.68262 62.6843 8.66636 66.5051 12.168V9.41197H73.0059V35.2116H66.5959V32.6586C66.2525 32.8615 66.0511 32.9396 65.9012 33.0723C61.0304 37.4992 53.5112 36.8004 49.1023 31.5226C47.5866 29.7073 46.5604 27.6657 46.1775 25.3313C46.0946 24.8238 45.9604 24.5154 45.3328 24.5154C39.645 24.5388 33.9573 24.5349 28.2695 24.5388C28.2063 24.5388 28.1471 24.574 28.0169 24.613L28.0208 24.6169ZM66.8643 22.0639C66.8445 21.7789 66.8366 21.3183 66.7735 20.8694C66.3748 18.0587 64.8986 15.9819 62.1948 15.0216C59.4358 14.0457 56.8031 14.4243 54.6085 16.5245C52.6863 18.3671 52.181 20.6976 52.3705 23.235C52.7376 28.1185 57.4228 31.2766 62.0093 29.7425C65.0249 28.7314 66.884 25.8544 66.8643 22.0639ZM38.6385 20.4946C38.3149 18.3554 35.9229 16.6846 33.3257 16.7158C30.8825 16.7431 28.6524 18.4295 28.384 20.4946H38.6385Z" fill="white" fill-opacity="0.5"/>
<path d="M0.00394493 35.9376V0.960365C0.0868341 0.90181 0.138147 0.831543 0.189459 0.831543C4.55101 0.972076 8.93229 0.90181 13.2662 1.31951C17.4541 1.72159 20.521 5.14124 20.892 9.30259C21.0104 10.6181 20.9867 11.9805 20.7696 13.2805C20.217 16.583 18.1054 18.6871 15.0779 19.9831C14.8411 20.0846 14.6122 20.2017 14.249 20.3696C17.0396 25.5576 19.7987 30.6949 22.6445 35.9883C20.221 35.9883 17.9948 36.0157 15.7726 35.9532C15.5042 35.9454 15.1687 35.5238 15.0029 35.2193C12.5952 30.7847 10.2111 26.3384 7.82315 21.892C7.77579 21.8062 7.75605 21.693 7.68895 21.6344C7.43634 21.4314 7.16794 21.244 6.90743 21.0528C6.8048 21.326 6.61139 21.5993 6.60744 21.8725C6.58376 24.0196 6.59166 26.1627 6.59166 28.3097C6.59166 30.5192 6.59166 32.7327 6.59166 34.9422C6.59166 35.2584 6.56403 35.5746 6.54824 35.9376H0H0.00394493ZM6.5956 10.8836C6.5956 11.8907 6.56008 12.9018 6.62323 13.9051C6.63902 14.151 6.98637 14.5882 7.17188 14.5843C8.77835 14.5414 10.4085 14.5609 11.9755 14.2759C13.8741 13.9324 14.6674 12.6793 14.5688 10.7196C14.4819 8.97468 13.2899 7.60057 11.5453 7.40539C10.1756 7.25314 8.79019 7.26876 7.4166 7.18288C6.74165 7.13994 6.56798 7.44833 6.58771 8.05731C6.62324 8.9981 6.5956 9.9428 6.5956 10.8875V10.8836Z" fill="white" fill-opacity="0.5"/>
<path d="M82.0289 18.4372C81.796 20.19 81.3934 21.9427 81.3737 23.6994C81.3579 25.1906 81.7802 26.6858 82.0092 28.1809C82.0092 30.7417 82.0092 33.3025 82.0092 35.9258H75.5557V0H82.0289V18.4333V18.4372Z" fill="white" fill-opacity="0.5"/>
</svg>
