<svg width="69" height="51" viewBox="0 0 69 51" fill="none" xmlns="http://www.w3.org/2000/svg">
<g clip-path="url(#clip0_3_2796)">
<rect width="69" height="51" fill="#0F0E3E"/>
<path d="M27.8285 42.1862C19.2857 32.183 19.5286 18.5229 27.7402 8.89681C22.3385 5.35195 12.882 8.48137 6.5362 16.0275C4.41359 14.8003 2.26062 13.5568 0.00552044 12.2531C2.36827 8.45404 5.42935 5.45854 9.29918 3.35404C17.1603 -0.923287 25.176 -1.11461 33.2386 2.81562C34.1467 3.25838 34.8119 3.29938 35.7504 2.82109C48.2266 -3.52522 62.5328 1.60485 68.9586 12.2722C66.8139 13.5185 64.6692 14.7621 62.4831 16.033C57.0979 8.70276 50.0952 6.25115 41.0334 8.66176C45.2731 13.6251 47.5282 19.1679 47.5338 25.4431C47.5393 31.7484 45.3311 37.3185 41.1742 42.1261C46.6781 44.5039 56.4769 43.7468 62.4528 34.9489C64.5919 36.187 66.7421 37.4306 69 38.7343C67.3135 41.5576 65.224 43.878 62.6487 45.7229C54.0865 51.856 45.0164 52.6103 35.4606 48.1444C34.9168 47.8902 34.0252 47.9257 33.476 48.1909C21.734 53.8785 8.31654 50.5222 0.803224 39.9642C0.546524 39.6007 0.311905 39.2235 0 38.7534C2.2275 37.4634 4.37771 36.2143 6.59693 34.9298C9.53932 39.2563 13.445 42.0304 18.5763 43.0198C21.3641 43.5582 25.5376 43.2248 27.8258 42.1835L27.8285 42.1862ZM34.5193 37.6847C42.0437 30.513 41.0445 18.1812 34.4669 12.4936C27.4918 18.8508 27.4808 31.0651 34.5193 37.6847Z" fill="white"/>
</g>
<defs>
<clipPath id="clip0_3_2796">
<rect width="69" height="51" fill="white"/>
</clipPath>
</defs>
</svg>
