<svg width="117" height="34" viewBox="0 0 117 34" fill="none" xmlns="http://www.w3.org/2000/svg">
<g clip-path="url(#clip0_3_2849)">
<rect width="117" height="34" fill="#0F0E3E"/>
<path d="M0 12.2332C0 11.7357 0 11.2382 0 10.7368C0.0698991 10.6906 0.169229 10.6597 0.19866 10.5941C0.743137 9.4333 1.66654 9.00521 2.85482 9.07463C3.64947 9.24818 4.19026 9.78039 4.63173 10.4514C5.31601 11.4966 6.00028 12.5417 6.68456 13.583C7.05245 14.1422 7.41666 14.7014 7.78455 15.2607C8.00896 15.6116 8.22969 15.9587 8.45411 16.3097C10.2237 19.0324 11.9969 21.7514 13.7664 24.4741C14.3293 25.3342 14.8922 26.1942 15.4587 27.0581C15.4918 27.1043 15.5213 27.1545 15.5544 27.2008C16.1356 28.1842 16.8199 28.9902 18.0818 28.7781C18.961 28.5891 19.4614 27.9335 19.8881 27.1853C20.1898 26.7225 20.4951 26.2597 20.7968 25.8008C21.0874 25.3534 21.3744 24.9061 21.665 24.4587C22.25 23.5601 22.8386 22.6615 23.4235 21.7629C23.9827 20.9029 24.5456 20.039 25.1048 19.179C25.2924 18.9052 25.4874 18.6391 25.664 18.3614C27.2937 15.8199 28.9161 13.2784 30.5422 10.7368C30.7666 10.4283 30.991 10.1236 31.2191 9.8151C31.9659 9.14019 32.8194 8.93194 33.7796 9.17876C34.5375 9.51043 35.0305 10.1121 35.3616 10.8795C35.5602 11.8823 35.2512 12.7654 34.7546 13.5984C34.4345 14.0844 34.1144 14.5703 33.7907 15.0563C33.5074 15.4766 33.2241 15.897 32.9409 16.3174C32.3633 17.2198 31.7857 18.1261 31.2044 19.0286C30.6121 19.9349 30.0198 20.8373 29.4275 21.7436C27.68 24.4626 25.9289 27.1815 24.1814 29.9004L23.4015 30.9764C22.9269 31.4816 22.456 31.9868 21.9814 32.4882C21.5878 32.7582 21.1978 33.0281 20.8042 33.2981C19.9359 33.5333 19.0714 33.7686 18.2032 34C17.3423 33.8959 16.4778 33.7917 15.6169 33.6876C13.7223 32.9279 12.3685 31.5048 11.2501 29.7886C10.6798 28.9131 10.0986 28.0415 9.52099 27.1699C8.95444 26.2983 8.38789 25.4267 7.82134 24.5513C7.82502 24.5088 7.8103 24.478 7.77351 24.4587C7.18121 23.5524 6.58891 22.6461 5.9966 21.7359C5.7354 21.331 5.47052 20.926 5.20932 20.5172C4.88926 20.0197 4.56919 19.5222 4.24545 19.0286C3.70465 18.2033 3.16017 17.3741 2.61938 16.5488C2.56787 16.4678 2.52005 16.3868 2.46854 16.3058C1.64079 14.9521 0.820394 13.5907 0 12.2332Z" fill="white"/>
<path d="M40.4311 0C40.6923 0 40.9498 0 41.211 0C41.3471 0.169691 41.4722 0.347096 41.6194 0.505218C42.4765 1.42695 43.3374 2.34483 44.1983 3.2627C44.2387 3.47482 44.2755 3.68693 44.316 3.89905C44.2939 3.9569 44.2718 4.01089 44.2461 4.06874C44.2277 4.11502 44.213 4.15744 44.1946 4.20372C43.8414 4.61252 43.4882 5.01747 43.1351 5.42627C42.62 5.97005 42.105 6.51384 41.5936 7.05762C40.6812 7.64383 40.4715 7.61683 39.699 6.83394C39.4672 6.59868 39.2281 6.375 38.9926 6.14746C38.7498 5.90449 38.5033 5.66152 38.2605 5.42241C38.1171 5.26044 37.9773 5.09074 37.8301 4.93262C36.9656 4.02632 36.9435 3.69465 37.6682 2.71892C38.1097 2.25998 38.5548 1.80104 38.9963 1.34211C39.4746 0.89088 39.9528 0.447368 40.4311 0Z" fill="white"/>
<path d="M116.746 24.0615C116.404 25.1028 116.062 26.1441 115.72 27.1854C114.76 29.0442 113.465 30.5985 111.809 31.8133C111.371 32.0794 110.934 32.3455 110.496 32.6116C110.065 32.8006 109.639 32.9857 109.208 33.1747C108.292 33.3945 107.376 33.6105 106.46 33.8303C106.339 33.838 106.214 33.8457 106.092 33.8573C101.924 33.8573 97.7557 33.8727 93.5875 33.8573C92.7267 33.8573 91.8658 33.7609 91.0049 33.7069C90.1845 33.4794 89.3605 33.2518 88.5401 33.0243C88.2421 32.8854 87.9478 32.7466 87.6498 32.6116C87.0391 32.199 86.4284 31.7863 85.8177 31.3698C84.4234 30.1434 83.305 28.6856 82.4552 27.0041C82.1793 26.2019 81.8997 25.4036 81.6237 24.6014C81.4913 23.1976 81.3589 21.7938 81.2301 20.3938C81.2411 20.2126 81.2522 20.0313 81.2595 19.8501C81.5575 18.6275 81.8555 17.405 82.1535 16.1786C83.4227 13.1434 85.5344 10.9798 88.404 9.61072C89.5371 9.3099 90.6702 9.00909 91.7996 8.71213C92.0534 8.70056 92.3109 8.68899 92.5648 8.68127C97.0751 8.68127 101.582 8.68127 106.092 8.68513C107.13 8.90882 108.167 9.1325 109.204 9.35618L111.809 10.7291C111.886 10.7831 111.964 10.8371 112.045 10.8911C112.828 11.6624 113.615 12.4338 114.399 13.2051C114.491 13.3362 114.587 13.4673 114.679 13.5985C115.194 14.5935 115.709 15.5923 116.224 16.5874C117.044 19.0325 117.206 21.5277 116.746 24.0731V24.0615ZM110.764 16.3097C110.249 15.8006 109.734 15.2915 109.215 14.7863C108.436 14.4315 107.656 14.0728 106.879 13.718C105.919 13.6409 104.959 13.5638 103.999 13.4866C103.866 13.4866 103.738 13.4943 103.605 13.4982C101.659 13.4982 99.7129 13.4943 97.7668 13.4905C97.4173 13.4905 97.0678 13.4905 96.7183 13.4905C96.5454 13.4905 96.3724 13.4828 96.1995 13.4828C96.0266 13.4828 95.85 13.4828 95.6771 13.4789C94.5036 13.5136 93.33 13.5522 92.1564 13.5869C91.7701 13.6756 91.3839 13.7604 90.9939 13.8492C88.61 14.3968 86.5388 16.6953 86.0789 19.2986C86.0237 20.1663 85.9722 21.034 85.917 21.8979C86.1341 22.8042 86.3475 23.7144 86.5645 24.6207C87.1163 25.4383 87.6719 26.2598 88.2237 27.0774C88.3193 27.1661 88.4187 27.2548 88.5143 27.3435C89.3421 27.8101 90.1661 28.2768 90.9939 28.7434C91.3802 28.8129 91.7665 28.8823 92.1528 28.9555C92.6347 28.9864 93.1203 29.0173 93.6022 29.0481C93.9481 29.0481 94.2939 29.0481 94.6397 29.052C96.0266 29.052 97.4136 29.052 98.8005 29.0481C99.1463 29.0481 99.4922 29.0481 99.838 29.052C100.53 29.052 101.218 29.052 101.909 29.052C102.259 29.052 102.608 29.052 102.958 29.052C102.998 29.052 103.042 29.052 103.083 29.052C103.171 29.052 103.263 29.052 103.351 29.0481C104.264 29.0173 105.176 28.9864 106.088 28.9555C106.258 28.9324 106.423 28.9131 106.592 28.89C108.995 28.3771 110.739 27.0157 111.677 24.6014C112.648 22.2643 112.607 19.9503 111.544 17.6556C111.456 17.4782 111.364 17.3008 111.276 17.1234C111.103 16.8535 110.93 16.5796 110.757 16.3097H110.764Z" fill="white"/>
<path d="M64.8406 33.9576C64.1673 33.9576 63.4904 33.9576 62.8172 33.9614C61.8165 33.5488 60.8158 33.1361 59.8152 32.7273C59.7674 32.6887 59.7195 32.654 59.6717 32.6155C58.8476 31.6706 58.0236 30.7296 57.1995 29.7847C56.0553 28.0107 54.9149 26.2366 53.7708 24.4626C53.1785 23.5601 52.5861 22.6577 51.9938 21.7514C51.4089 20.8451 50.824 19.9426 50.2427 19.0363C49.9668 18.6198 49.6909 18.1994 49.4149 17.7829C49.1169 17.324 48.8153 16.8612 48.5173 16.4022C48.5173 16.3598 48.5026 16.3289 48.4658 16.3135C47.9176 15.4843 47.3695 14.6552 46.8213 13.826C46.7735 13.745 46.7257 13.6679 46.6778 13.5869C46.2143 12.75 45.8317 11.8977 46.0635 10.8872C46.3173 10.4823 46.5675 10.0774 46.8213 9.67241C47.616 9.09392 48.4731 8.90494 49.4113 9.22119C49.9263 9.77268 50.4413 10.3242 50.9564 10.8757C51.3096 11.4156 51.6591 11.9517 52.0122 12.4916C52.2587 12.8618 52.5015 13.2359 52.748 13.6062C54.5029 16.3174 56.2577 19.0286 58.0125 21.7398L59.8005 24.4741C60.3744 25.3766 60.9483 26.2752 61.5222 27.1776C61.8202 27.5363 62.1182 27.895 62.4162 28.2536C63.3322 29.0597 64.4028 29.025 65.0208 28.1611C65.3151 27.8333 65.6094 27.5054 65.9038 27.1776C66.4777 26.279 67.0553 25.3804 67.6292 24.4857C68.2288 23.5755 68.8285 22.6615 69.4281 21.7514C71.194 19.0324 72.9599 16.3097 74.7258 13.5907C74.9538 13.2321 75.1856 12.8773 75.4137 12.5186C75.7595 11.971 76.1053 11.4233 76.4512 10.8757C76.9736 10.3319 77.4923 9.78811 78.0147 9.24433C78.9418 8.94737 79.81 9.05535 80.601 9.6647C80.8548 10.0696 81.1086 10.4784 81.3625 10.8834C81.5501 11.8823 81.2779 12.7693 80.7408 13.5869C80.6929 13.664 80.6414 13.745 80.5936 13.8221C80.0271 14.6899 79.4568 15.5576 78.8903 16.4292C78.596 16.8843 78.3016 17.3394 78.0073 17.7906C77.7425 18.1994 77.4776 18.6082 77.2127 19.017C76.6167 19.931 76.0207 20.8412 75.4247 21.7552C74.8361 22.6577 74.2475 23.5601 73.6589 24.4626C72.5111 26.2366 71.3632 28.0068 70.2118 29.7809C69.4245 30.7219 68.6372 31.6667 67.8499 32.6078C67.8131 32.6309 67.7763 32.654 67.7358 32.6733C67.7027 32.7042 67.6733 32.7312 67.6402 32.762L67.6144 32.7852C66.691 33.1747 65.7713 33.5681 64.8479 33.9576H64.8406Z" fill="white"/>
<path d="M41.6049 33.8534C40.6521 34.1273 39.7765 33.9807 38.9966 33.3174C38.7464 33.0243 38.4926 32.735 38.2424 32.4419C38.2424 32.3686 38.2461 32.2915 38.2497 32.2182C38.2387 32.0331 38.2314 31.848 38.2203 31.6629C38.2166 31.0728 38.2093 30.4828 38.2056 29.8927C38.2056 28.9864 38.2056 28.0839 38.2056 27.1776C38.2056 26.2713 38.2056 25.3612 38.2056 24.4549C38.2056 23.5485 38.2056 22.6461 38.2056 21.7398C38.2056 20.8335 38.2056 19.9233 38.2056 19.017C38.2056 18.1107 38.2056 17.2083 38.2056 16.3019C38.2056 15.3956 38.2019 14.4855 38.1982 13.5792C38.2093 12.8696 38.224 12.1599 38.235 11.4503C38.2571 11.3462 38.2792 11.2459 38.3013 11.1418C38.3123 11.0492 38.327 10.9567 38.338 10.8641C38.5625 10.4707 38.7832 10.0735 39.0076 9.68012C39.7139 9.19805 40.4792 8.98593 41.3216 9.10163C42.2781 9.44487 42.8925 10.1198 43.1464 11.1495C43.1574 11.2806 43.1684 11.4117 43.1795 11.5429C43.1721 13.1279 43.1574 14.713 43.1574 16.2981C43.1611 21.0996 43.1758 25.9011 43.1831 30.7026C43.0985 31.3389 43.0139 31.9753 42.9256 32.6116C42.4842 33.0204 42.039 33.4331 41.5975 33.8419L41.6049 33.8534Z" fill="white"/>
</g>
<defs>
<clipPath id="clip0_3_2849">
<rect width="117" height="34" fill="white"/>
</clipPath>
</defs>
</svg>
