<svg width="182" height="45" viewBox="0 0 182 45" fill="none" xmlns="http://www.w3.org/2000/svg">
<g clip-path="url(#clip0_3_3310)">
<path d="M24.9949 0C26.2428 0.278139 27.5092 0.494063 28.7349 0.845397C37.2221 3.29009 42.7543 8.76505 44.8909 17.1861C46.8497 24.9081 44.9205 31.8799 39.4438 37.805C35.8371 41.7099 31.3381 44.0485 26.0836 44.7621C19.4072 45.6661 13.3973 43.957 8.19093 39.6714C3.89921 36.1361 1.3775 31.5908 0.407324 26.178C0.266612 25.3839 0.133306 24.586 0 23.7882C0 22.9355 0 22.0791 0 21.2264C0.0629501 21.0617 0.16293 20.9044 0.181445 20.736C0.418433 18.273 0.944252 15.8832 1.98108 13.6142C5.08415 6.82905 10.2572 2.50325 17.5742 0.688029C18.3888 0.486744 19.1887 0.230563 19.9959 0C21.6623 0 23.3286 0 24.9949 0ZM44.0873 22.6244C44.3058 11.1768 34.73 1.50049 22.962 1.47853C11.1274 1.46023 1.61078 10.6535 1.55154 22.3719C1.48859 34.3758 11.1644 43.4812 22.762 43.569C34.4782 43.6569 44.228 34.0025 44.091 22.6244H44.0873Z" fill="#AEB8C4"/>
<path d="M182 11.8941C181.878 12.1246 181.715 12.3442 181.644 12.5931C181.182 14.1997 179.697 15.3745 178.075 15.3928C176.39 15.4147 174.79 14.1558 174.305 12.432C173.891 10.9572 174.642 9.27735 176.116 8.38438C178.241 7.09615 180.967 8.18675 181.648 10.5839C181.707 10.7925 181.881 10.9718 182.004 11.1621V11.8941H182Z" fill="#E38338"/>
<path d="M128.207 23.7588C128.433 23.4404 128.689 23.1367 128.877 22.8C131.125 18.7597 134.547 16.4431 139.235 16.3918C143.734 16.3406 147.218 18.3681 149.647 22.1303C149.821 22.4011 149.992 22.6719 150.166 22.9464C150.258 22.9281 150.351 22.9098 150.447 22.8915C150.447 22.5877 150.447 22.2876 150.447 21.9839C150.436 20.6444 150.436 19.3013 150.41 17.9618C150.399 17.4751 150.536 17.2445 151.084 17.2445C157.749 17.2592 164.411 17.2555 171.076 17.2628C171.161 17.2628 171.25 17.3067 171.465 17.3653C171.465 18.7926 171.498 20.2418 171.439 21.6911C171.424 21.9985 171.102 22.3242 170.865 22.5914C167.784 26.0425 164.692 29.4827 161.604 32.9265C161.486 33.0582 161.382 33.2046 161.16 33.4937C161.571 33.5486 161.849 33.6108 162.123 33.6145C165.918 33.6474 169.714 33.6511 173.505 33.717C174.313 33.7316 174.476 33.4498 174.472 32.7215C174.446 27.9053 174.476 23.0855 174.442 18.2693C174.435 17.4751 174.635 17.2006 175.468 17.2336C177.131 17.2994 178.801 17.2628 180.463 17.2482C180.922 17.2482 181.219 17.3067 181.219 17.8813C181.204 25.1971 181.208 32.5166 181.2 39.8324C181.2 39.9458 181.148 40.0629 181.1 40.2642C179.215 40.2642 177.342 40.2642 175.468 40.2642C167.633 40.2569 159.797 40.2313 151.962 40.2606C151.066 40.2606 150.917 39.9861 150.817 39.1443C150.54 36.8058 151.369 35.082 153.021 33.4059C155.813 30.5696 158.357 27.4954 161.001 24.5164C161.115 24.3847 161.204 24.231 161.4 23.9455H150.655C151.088 25.7717 151.639 27.5284 151.214 29.4753H134.306C134.269 31.437 135.965 33.4278 137.968 33.8451C140.26 34.3245 142.245 33.8451 143.786 31.9896C143.9 31.8505 144.152 31.6895 144.297 31.7224C146.27 32.1616 148.24 32.63 150.321 33.1204C149.61 34.9027 148.54 36.2532 147.185 37.3767C141.134 42.3869 132.417 40.6082 128.818 33.6547C128.67 33.3729 128.403 33.1497 128.192 32.9008C127.978 31.5028 127.581 30.0975 127.596 28.6995C127.615 27.0526 127.989 25.4094 128.211 23.7662L128.207 23.7588ZM144.245 25.7058C143.837 23.4587 141.401 21.9692 138.716 22.1595C136.909 22.2876 134.61 24.1029 134.702 25.7058H144.245Z" fill="#E38238"/>
<path d="M77.5397 29.5522C77.5582 31.8871 79.7245 33.9183 82.3165 34.0134C84.1606 34.0793 85.7825 33.5596 86.986 32.0665C87.1267 31.8945 87.4488 31.7188 87.6414 31.7627C89.5928 32.1836 91.5332 32.6484 93.4809 33.1022C92.4108 36.4838 88.0413 40.3374 82.3795 40.202C76.7066 40.0666 72.0631 36.0299 70.9929 30.383C69.9598 24.9483 73.0517 19.2867 78.2433 17.2299C81.5426 15.9234 84.8234 16.0918 88.0006 17.6581C91.1295 19.2025 93.118 21.746 94.3178 25.0288C95.2509 20.6005 97.4357 17.1055 101.724 15.4037C106.067 13.6763 110.059 14.5986 113.643 17.8814V15.2976H119.742V39.4847H113.729V37.0913C113.406 37.2816 113.218 37.3548 113.077 37.4792C108.507 41.6293 101.453 40.9742 97.3172 36.0263C95.8952 34.3245 94.9325 32.4105 94.5733 30.222C94.4955 29.7462 94.3696 29.4571 93.7809 29.4571C88.4449 29.479 83.109 29.4754 77.773 29.479C77.7138 29.479 77.6582 29.512 77.536 29.5486L77.5397 29.5522ZM113.98 27.1588C113.962 26.8916 113.955 26.4598 113.895 26.0389C113.521 23.4039 112.136 21.4569 109.6 20.5566C107.012 19.6417 104.542 19.9967 102.483 21.9656C100.679 23.693 100.205 25.8779 100.383 28.2567C100.728 32.835 105.123 35.7957 109.426 34.3575C112.255 33.4096 113.999 30.7124 113.98 27.1588ZM87.5007 25.6876C87.197 23.682 84.953 22.1157 82.5165 22.1449C80.2244 22.1706 78.1322 23.7516 77.8804 25.6876H87.5007Z" fill="black"/>
<path d="M51.2563 40.1656V7.37443C51.334 7.31954 51.3822 7.25366 51.4303 7.25366C55.5221 7.38541 59.6323 7.31954 63.6982 7.71113C67.627 8.08808 70.5042 11.294 70.8523 15.1953C70.9634 16.4286 70.9411 17.7058 70.7375 18.9245C70.2191 22.0207 68.238 23.9933 65.3978 25.2083C65.1757 25.3034 64.9609 25.4132 64.6202 25.5706C67.2382 30.4344 69.8266 35.2506 72.4964 40.2132C70.2228 40.2132 68.1343 40.2388 66.0495 40.1802C65.7977 40.1729 65.483 39.7777 65.3275 39.4922C63.0687 35.3347 60.8321 31.1663 58.5918 26.9979C58.5474 26.9174 58.5289 26.8112 58.4659 26.7563C58.2289 26.566 57.9771 26.3904 57.7327 26.211C57.6364 26.4672 57.455 26.7234 57.4513 26.9796C57.4291 28.9924 57.4365 31.0016 57.4365 33.0145C57.4365 35.0859 57.4365 37.1609 57.4365 39.2324C57.4365 39.5288 57.4106 39.8252 57.3958 40.1656H51.2526H51.2563ZM57.4402 16.6775C57.4402 17.6217 57.4069 18.5695 57.4661 19.5101C57.4809 19.7407 57.8068 20.1505 57.9808 20.1469C59.4879 20.1066 61.0172 20.1249 62.4873 19.8578C64.2684 19.5357 65.0127 18.3609 64.9202 16.5238C64.8387 14.8879 63.7204 13.5996 62.0837 13.4166C60.7988 13.2739 59.499 13.2886 58.2104 13.208C57.5772 13.1678 57.4143 13.4569 57.4328 14.0278C57.4661 14.9098 57.4402 15.7955 57.4402 16.6811V16.6775Z" fill="black"/>
<path d="M128.207 23.759C127.989 25.4022 127.611 27.0454 127.593 28.6923C127.578 30.0903 127.974 31.492 128.189 32.8937C128.189 35.2945 128.189 37.6953 128.189 40.1546H122.134V6.47412H128.207V23.7554V23.759Z" fill="#171C23"/>
<path d="M34.2671 12.154C34.2041 12.3333 34.1116 12.6517 33.982 12.9555C30.7826 20.3079 27.5796 27.6602 24.3654 35.0053C24.1988 35.3859 23.9988 35.8068 23.6878 36.0666C23.0583 36.5863 22.2325 36.2204 21.9104 35.3018C21.1327 33.0913 20.344 30.8808 19.6256 28.6484C19.3479 27.7883 18.9554 27.2833 17.9815 27.093C15.6264 26.6319 13.3047 26.0207 10.9607 25.501C10.3609 25.3693 9.7906 25.1094 9.85725 24.4982C9.90909 24.0481 10.2831 23.4735 10.6867 23.2466C17.8371 19.2319 25.0134 15.2611 32.1897 11.283C33.3191 10.6572 34.2486 10.9902 34.2671 12.1576V12.154Z" fill="#E38238"/>
</g>
<defs>
<clipPath id="clip0_3_3310">
<rect width="182" height="45" fill="white"/>
</clipPath>
</defs>
</svg>
