<svg width="121" height="31" viewBox="0 0 121 31" fill="none" xmlns="http://www.w3.org/2000/svg">
<g clip-path="url(#clip0_3_3402)">
<path d="M16.6175 0C17.4471 0.191607 18.2891 0.340355 19.104 0.582384C24.7465 2.26651 28.4245 6.03814 29.845 11.8393C31.1473 17.1589 29.8647 21.9617 26.2236 26.0434C23.8258 28.7335 20.8346 30.3445 17.3413 30.8361C12.9026 31.4588 8.90698 30.2815 5.44562 27.3292C2.59233 24.8938 0.915809 21.7625 0.270804 18.0338C0.177253 17.4867 0.0886266 16.9371 0 16.3874C0 15.8 0 15.2101 0 14.6226C0.0418515 14.5092 0.108321 14.4008 0.120631 14.2848C0.278189 12.5881 0.627772 10.9418 1.31709 9.37866C3.38012 4.70446 6.81933 1.72446 11.6839 0.473975C12.2256 0.335312 12.7573 0.158832 13.294 0C14.4018 0 15.5097 0 16.6175 0ZM29.3108 15.5857C29.456 7.69958 23.0897 1.03367 15.2659 1.01854C7.39786 1.00594 1.07091 7.33905 1.03152 15.4118C0.989664 23.6811 7.42248 29.9537 15.133 30.0142C22.9223 30.0747 29.4044 23.424 29.3133 15.5857H29.3108Z" fill="white"/>
<path d="M121 8.19383C120.919 8.35266 120.81 8.50393 120.764 8.67537C120.456 9.78215 119.469 10.5914 118.39 10.604C117.27 10.6192 116.207 9.7519 115.884 8.56444C115.609 7.54842 116.108 6.39121 117.088 5.77605C118.501 4.88861 120.313 5.63991 120.766 7.29126C120.805 7.43496 120.921 7.5585 121.002 7.6896V8.19383H121Z" fill="white"/>
<path d="M85.2364 16.3672C85.3866 16.1479 85.5565 15.9386 85.682 15.7067C87.1764 12.9233 89.4511 11.3275 92.5678 11.2922C95.559 11.2569 97.8756 12.6536 99.4906 15.2453C99.6063 15.4319 99.7195 15.6184 99.8352 15.8075C99.8968 15.7949 99.9583 15.7823 100.022 15.7697C100.022 15.5605 100.022 15.3537 100.022 15.1445C100.015 14.2217 100.015 13.2965 99.9977 12.3737C99.9903 12.0384 100.081 11.8796 100.446 11.8796C104.877 11.8897 109.306 11.8871 113.737 11.8922C113.794 11.8922 113.853 11.9224 113.996 11.9628C113.996 12.946 114.018 13.9444 113.979 14.9428C113.969 15.1546 113.755 15.3789 113.597 15.563C111.549 17.9404 109.493 20.3103 107.44 22.6827C107.361 22.7735 107.292 22.8743 107.144 23.0735C107.418 23.1113 107.602 23.1541 107.785 23.1567C110.308 23.1794 112.831 23.1819 115.352 23.2273C115.889 23.2373 115.997 23.0432 115.995 22.5415C115.978 19.2237 115.997 15.9033 115.975 12.5855C115.97 12.0384 116.103 11.8493 116.657 11.872C117.762 11.9174 118.873 11.8922 119.978 11.8821C120.283 11.8821 120.48 11.9224 120.48 12.3183C120.47 17.358 120.473 22.4003 120.468 27.4401C120.468 27.5182 120.434 27.5989 120.402 27.7376C119.148 27.7376 117.903 27.7376 116.657 27.7376C111.448 27.7325 106.238 27.7149 101.029 27.7351C100.433 27.7351 100.335 27.546 100.269 26.9661C100.084 25.3551 100.635 24.1676 101.733 23.013C103.59 21.0591 105.281 18.9413 107.039 16.8891C107.115 16.7983 107.174 16.6924 107.304 16.4958H100.16C100.448 17.7539 100.815 18.964 100.532 20.3053H89.2911C89.2665 21.6566 90.394 23.0281 91.7259 23.3155C93.2498 23.6458 94.5693 23.3155 95.5934 22.0373C95.6698 21.9415 95.8372 21.8305 95.9332 21.8532C97.2453 22.1558 98.5551 22.4785 99.9386 22.8163C99.4659 24.0441 98.7545 24.9744 97.8534 25.7484C93.8308 29.1999 88.0356 27.9746 85.6426 23.1844C85.5442 22.9903 85.3669 22.8365 85.2266 22.665C85.0838 21.702 84.8204 20.7338 84.8302 19.7708C84.8425 18.6363 85.0912 17.5043 85.2389 16.3723L85.2364 16.3672ZM95.8987 17.7085C95.6279 16.1605 94.008 15.1344 92.2232 15.2655C91.0218 15.3537 89.493 16.6042 89.5545 17.7085H95.8987Z" fill="white"/>
<path d="M51.5514 20.3581C51.5637 21.9666 53.0039 23.3659 54.7271 23.4314C55.9532 23.4768 57.0314 23.1188 57.8315 22.0902C57.9251 21.9717 58.1393 21.8507 58.2673 21.8809C59.5647 22.1708 60.8547 22.491 62.1496 22.8036C61.4382 25.1332 58.5332 27.788 54.769 27.6947C50.9974 27.6014 47.9103 24.8206 47.1988 20.9304C46.512 17.1865 48.5676 13.2863 52.0191 11.8694C54.2126 10.9694 56.3938 11.0854 58.5061 12.1644C60.5864 13.2283 61.9084 14.9805 62.706 17.242C63.3264 14.1914 64.7789 11.7837 67.6297 10.6114C70.5175 9.42141 73.1713 10.0567 75.5544 12.3182V10.5383H79.6091V27.2005H75.611V25.5517C75.3969 25.6828 75.2713 25.7332 75.1777 25.8189C72.1398 28.6779 67.45 28.2266 64.7001 24.818C63.7548 23.6457 63.1147 22.3272 62.8759 20.8195C62.8242 20.4918 62.7405 20.2926 62.349 20.2926C58.8015 20.3077 55.254 20.3052 51.7065 20.3077C51.6671 20.3077 51.6301 20.3304 51.5489 20.3556L51.5514 20.3581ZM75.7784 18.7093C75.7661 18.5253 75.7612 18.2278 75.7218 17.9378C75.4732 16.1226 74.5524 14.7814 72.8661 14.1612C71.1452 13.5309 69.5032 13.7754 68.1344 15.1318C66.9355 16.3218 66.6203 17.8269 66.7385 19.4657C66.9675 22.6196 69.8897 24.6592 72.7504 23.6684C74.6312 23.0154 75.7907 21.1573 75.7784 18.7093ZM58.1737 17.6958C57.9719 16.3142 56.48 15.2352 54.8601 15.2553C53.3362 15.273 51.9453 16.3621 51.7779 17.6958H58.1737Z" fill="white"/>
<path d="M34.0769 27.6697V5.08027C34.1286 5.04245 34.1606 4.99707 34.1926 4.99707C36.913 5.08783 39.6456 5.04245 42.3487 5.31221C44.9608 5.57189 46.8736 7.78041 47.105 10.468C47.1789 11.3176 47.1641 12.1975 47.0287 13.037C46.6841 15.1699 45.367 16.5288 43.4787 17.3658C43.331 17.4314 43.1882 17.507 42.9617 17.6154C44.7023 20.966 46.4231 24.2838 48.1981 27.7025C46.6865 27.7025 45.298 27.7201 43.912 27.6798C43.7446 27.6748 43.5354 27.4025 43.432 27.2058C41.9302 24.3418 40.4433 21.4702 38.9539 18.5986C38.9243 18.5432 38.912 18.4701 38.8701 18.4323C38.7126 18.3012 38.5452 18.1801 38.3827 18.0566C38.3187 18.2331 38.1981 18.4096 38.1956 18.586C38.1808 19.9727 38.1858 21.3568 38.1858 22.7434C38.1858 24.1704 38.1858 25.5999 38.1858 27.0268C38.1858 27.231 38.1685 27.4353 38.1587 27.6697H34.0745H34.0769ZM38.1882 11.489C38.1882 12.1395 38.1661 12.7925 38.2054 13.4404C38.2153 13.5992 38.4319 13.8816 38.5476 13.8791C39.5496 13.8513 40.5664 13.8639 41.5437 13.6799C42.7279 13.458 43.2227 12.6487 43.1612 11.3831C43.107 10.2562 42.3635 9.36874 41.2754 9.24268C40.4211 9.14435 39.557 9.15444 38.7003 9.09897C38.2793 9.07124 38.171 9.27041 38.1833 9.66371C38.2055 10.2713 38.1882 10.8814 38.1882 11.4915V11.489Z" fill="white"/>
<path d="M85.2367 16.3673C85.0914 17.4993 84.8403 18.6313 84.828 19.7658C84.8181 20.7289 85.0816 21.6945 85.2243 22.6601C85.2243 24.314 85.2243 25.9678 85.2243 27.6621H81.1992V4.45996H85.2367V16.3648V16.3673Z" fill="white"/>
<path d="M22.782 8.37274C22.7401 8.49627 22.6786 8.71561 22.5924 8.92487C20.4654 13.9898 18.3359 19.0548 16.199 24.1148C16.0882 24.377 15.9553 24.6669 15.7485 24.8459C15.33 25.2039 14.781 24.9518 14.5668 24.319C14.0498 22.7962 13.5254 21.2734 13.0478 19.7355C12.8632 19.1431 12.6022 18.7952 11.9548 18.6641C10.389 18.3464 8.84545 17.9254 7.2871 17.5674C6.88828 17.4766 6.50915 17.2976 6.55346 16.8766C6.58793 16.5665 6.83658 16.1706 7.10492 16.0143C11.8588 13.2486 16.6298 10.5132 21.4009 7.7727C22.1518 7.34159 22.7697 7.57101 22.782 8.37526V8.37274Z" fill="white"/>
</g>
<defs>
<clipPath id="clip0_3_3402">
<rect width="121" height="31" fill="white"/>
</clipPath>
</defs>
</svg>
