<svg width="10" height="5" viewBox="0 0 10 5" fill="none" xmlns="http://www.w3.org/2000/svg">
<g clip-path="url(#clip0_3_2744)">
<path d="M5.01036 4.0314C5.06195 3.96221 5.08736 3.91318 5.12643 3.87702C6.47339 2.64023 7.8215 1.40518 9.16884 0.168744C9.27239 0.0734729 9.38315 0.000802554 9.5383 0.00254108C9.7272 0.00427961 9.86641 0.0825132 9.94872 0.234808C10.0341 0.392319 10.0117 0.546004 9.8922 0.684739C9.86299 0.718466 9.8281 0.748369 9.79472 0.778967C8.32637 2.12493 6.85765 3.4709 5.39006 4.81756C5.28044 4.9184 5.16664 5.00115 4.99936 5.00045C4.8446 4.99976 4.73308 4.93126 4.62876 4.83564C3.34173 3.65414 2.05356 2.47403 0.765774 1.29357C0.565114 1.10963 0.363696 0.926394 0.163794 0.741414C-0.0455899 0.547047 -0.0550729 0.292527 0.139139 0.11937C0.328419 -0.0496147 0.600391 -0.0391835 0.8075 0.150663C2.16281 1.39162 3.51736 2.63363 4.87153 3.87598C4.91098 3.91214 4.94284 3.95525 5.01036 4.0314Z" fill="white"/>
</g>
<defs>
<clipPath id="clip0_3_2744">
<rect width="10" height="5" fill="white"/>
</clipPath>
</defs>
</svg>
