<svg width="81" height="86" viewBox="0 0 81 86" fill="none" xmlns="http://www.w3.org/2000/svg">
<g clip-path="url(#clip0_3_2798)">
<rect width="81" height="86" fill="#0F0E3E"/>
<path d="M81 71.5727H78.6125V60.8384H81V71.5727Z" fill="white"/>
<path d="M40.3383 0C41.1446 1.37292 41.9154 2.68458 42.6841 3.99724C45.2562 8.38819 47.8262 12.7801 50.4064 17.1671C50.5676 17.4402 50.596 17.6401 50.4246 17.9344C47.1213 23.5657 43.8322 29.205 40.5391 34.8413C40.4803 34.9417 40.4103 35.0351 40.317 35.1747C39.9813 34.5973 39.6638 34.0499 39.3464 33.5035C36.3342 28.3232 33.323 23.1418 30.3067 17.9635C30.1657 17.7215 30.0856 17.5306 30.255 17.2414C33.5623 11.593 36.8575 5.93761 40.1547 0.284226C40.1963 0.212919 40.244 0.145628 40.3383 0.00100433V0Z" fill="white"/>
<path d="M40.4032 35.2812C40.604 35.2712 40.7501 35.2571 40.8951 35.2571C47.4094 35.2561 53.9226 35.2581 60.4369 35.2501C60.7767 35.2501 60.9745 35.3374 61.153 35.6458C64.3863 41.2188 67.6338 46.7838 70.8772 52.3518C70.9513 52.4784 71.0151 52.611 71.1267 52.8199H70.5293C64.083 52.8199 57.6367 52.8158 51.1904 52.8289C50.7826 52.8289 50.5697 52.7013 50.3668 52.3528C47.1386 46.815 43.8951 41.2851 40.6557 35.7532C40.5736 35.6136 40.5026 35.467 40.4032 35.2812Z" fill="white"/>
<path d="M40.2621 35.2782C40.1485 35.4881 40.0735 35.6347 39.9913 35.7764C36.7722 41.3022 33.548 46.825 30.3391 52.3569C30.1372 52.7054 29.9141 52.8299 29.5084 52.8289C23.0601 52.8159 16.6117 52.8199 10.1634 52.8199H9.58728C9.68769 52.625 9.75361 52.4794 9.83272 52.3428C13.0691 46.7879 16.3074 41.2339 19.5418 35.6779C19.6909 35.4228 19.8257 35.2461 20.1868 35.2471C26.7701 35.2611 33.3533 35.2571 39.9365 35.2581C40.0197 35.2581 40.1039 35.2682 40.2601 35.2782H40.2621Z" fill="white"/>
<path d="M16.8774 83.7322C15.8095 81.9575 14.7892 80.2602 13.7679 78.5629C13.7303 78.5719 13.6928 78.58 13.6563 78.589V85.8363H11.2445V75.2104C12.2232 75.2104 13.1969 75.1974 14.1695 75.2265C14.2963 75.2305 14.4474 75.4374 14.5346 75.582C15.3024 76.8565 16.059 78.1381 16.8643 79.4949C16.9849 79.3081 17.0752 79.1796 17.1543 79.044C17.8288 77.888 18.5093 76.735 19.1675 75.569C19.3186 75.3018 19.487 75.1913 19.8014 75.1994C20.6929 75.2205 21.5844 75.2064 22.5124 75.2064V85.8282H20.1087V78.6101C20.0671 78.595 20.0255 78.581 19.984 78.5659C18.9667 80.2582 17.9495 81.9495 16.8785 83.7312L16.8774 83.7322Z" fill="white"/>
<path d="M8.85407 71.5065V64.2733C8.81857 64.2602 8.78307 64.2472 8.74656 64.2351C7.72728 65.9304 6.70698 67.6257 5.63699 69.4054C4.56598 67.6528 3.52641 65.9525 2.48685 64.2522C2.45642 64.2572 2.42599 64.2622 2.39557 64.2662V71.5155H0V60.8967C0.9777 60.8967 1.93512 60.8806 2.89152 60.9138C3.03452 60.9188 3.20998 61.1297 3.30329 61.2844C3.99295 62.4323 4.66436 63.5913 5.34388 64.7453C5.42502 64.8839 5.51832 65.0155 5.64814 65.2143C6.17249 64.2873 6.6583 63.4166 7.15628 62.5528C7.4717 62.0055 7.68569 61.2683 8.16745 60.9831C8.63094 60.7079 9.37943 60.9017 10.0032 60.8937C10.4048 60.8887 10.8054 60.8937 11.2395 60.8937V71.5085H8.85508L8.85407 71.5065Z" fill="white"/>
<path d="M51.9854 65.9184C52.4195 66.2307 52.9094 66.4647 53.2349 66.8393C54.3252 68.0887 53.7826 70.465 52.2653 71.1389C51.8292 71.3327 51.3292 71.4713 50.8556 71.4824C49.0543 71.5215 47.2521 71.4984 45.4103 71.4984V60.8927C45.6659 60.8927 45.8981 60.8907 46.1294 60.8927C47.7156 60.9098 49.3069 60.8525 50.887 60.964C53.1152 61.1217 53.7532 62.7035 53.3384 64.4822C53.1943 65.1008 52.9246 65.3419 51.9854 65.9184ZM47.7683 69.5932C48.6882 69.553 49.5614 69.555 50.4235 69.4626C50.954 69.4064 51.1913 68.9906 51.2116 68.3448C51.2308 67.7312 51.0118 67.2642 50.5168 67.225C49.6081 67.1527 48.6892 67.2049 47.7683 67.2049V69.5942V69.5932ZM47.7785 65.1641C48.5574 65.1641 49.2815 65.1922 50.0016 65.1551C50.6162 65.1239 50.9712 64.6931 51.0057 64.0463C51.0392 63.4206 50.7856 63.0118 50.2085 62.9727C49.4103 62.9184 48.605 62.9586 47.7774 62.9586V65.1641H47.7785Z" fill="white"/>
<path d="M55.8252 85.8313H53.4337C53.4216 85.6375 53.4033 85.4748 53.4033 85.3121C53.4013 82.1364 53.4104 78.9607 53.3921 75.786C53.3891 75.334 53.5027 75.1804 53.9804 75.1974C55.5139 75.2497 57.0535 75.1944 58.5819 75.2969C60.4156 75.4194 61.371 76.4639 61.4561 78.2847C61.4744 78.6825 61.4714 79.0932 61.3953 79.4819C61.1762 80.5987 60.6853 81.1079 59.3212 81.7025C60.1762 83.0573 61.0271 84.4082 61.943 85.8584C60.9754 85.8584 60.1235 85.8715 59.2725 85.8434C59.1549 85.8393 59.0129 85.6555 58.9328 85.524C58.379 84.607 57.8395 83.682 57.2938 82.7611C56.9923 82.2509 56.5024 82.0396 55.8242 82.1273V85.8333L55.8252 85.8313ZM55.8445 80.0233C56.6315 79.9871 57.3567 79.9971 58.0697 79.9098C58.736 79.8284 59.0464 79.3273 59.0251 78.5469C59.0058 77.8398 58.661 77.3497 58.0372 77.3035C57.3212 77.2503 56.5981 77.2915 55.8455 77.2915V80.0233H55.8445Z" fill="white"/>
<path d="M33.5258 80.673C33.4548 81.2495 33.4112 81.9515 33.2763 82.6365C32.8615 84.7496 31.5278 85.8955 29.3554 85.991C28.7043 86.0191 28.0339 85.9809 27.3949 85.8564C25.691 85.5239 24.7661 84.389 24.405 82.7701C24.0744 81.2826 24.0784 79.7822 24.406 78.2948C24.8087 76.4689 25.8706 75.4093 27.758 75.1763C28.7063 75.0598 29.7327 75.104 30.6546 75.339C32.4406 75.795 33.1151 77.2302 33.3686 78.8994C33.4508 79.4427 33.467 79.9961 33.5248 80.672L33.5258 80.673ZM26.5764 80.4732C26.6728 81.1782 26.7063 81.8852 26.8767 82.5592C27.1028 83.453 27.7124 83.8166 28.7509 83.8206C29.8382 83.8246 30.4467 83.4751 30.684 82.5682C31.037 81.2234 31.0349 79.8515 30.684 78.5057C30.4538 77.6259 29.8686 77.2794 28.8452 77.2693C27.7499 77.2583 27.1495 77.5967 26.899 78.4996C26.7225 79.1364 26.6799 79.8103 26.5775 80.4721L26.5764 80.4732Z" fill="white"/>
<path d="M51.8272 80.6479C51.7369 81.3178 51.6923 82.056 51.531 82.7691C51.0655 84.8279 49.7907 85.8885 47.6608 85.99C47.0097 86.0211 46.3393 85.9829 45.7003 85.8604C44.0462 85.541 43.0979 84.4644 42.7297 82.8795C42.3687 81.3288 42.3656 79.7621 42.7277 78.2114C43.1293 76.495 44.1831 75.3842 45.9884 75.1823C46.8626 75.0849 47.7856 75.0889 48.6466 75.2526C50.4296 75.5911 51.2805 76.8726 51.597 78.5428C51.7237 79.2127 51.7491 79.9017 51.8282 80.6479H51.8272ZM49.2551 80.7082C49.1953 80.0282 49.1558 79.514 49.102 79.0008C49.0848 78.8371 49.0422 78.6734 48.9925 78.5147C48.7207 77.65 48.1476 77.2743 47.103 77.2683C46.0259 77.2623 45.388 77.6269 45.1598 78.5057C44.8109 79.8505 44.8109 81.2184 45.1577 82.5642C45.3819 83.4329 46.0178 83.8166 47.0421 83.8206C48.1142 83.8246 48.7531 83.455 48.9773 82.5722C49.1446 81.9164 49.1821 81.2284 49.2551 80.7072V80.7082Z" fill="white"/>
<path d="M67.9928 60.9208H70.367V65.0547H74.1967V60.9188H76.5872V71.5005H74.222V67.3687H70.3782V71.5105H67.9907V60.9218L67.9928 60.9208Z" fill="white"/>
<path d="M34.7307 60.9158H37.1232C37.1232 61.1167 37.1232 61.2934 37.1232 61.4702C37.1232 63.5582 37.1212 65.6462 37.1242 67.7342C37.1263 68.852 37.4995 69.298 38.6101 69.4165C39.0198 69.4607 39.4569 69.4235 39.8596 69.3311C40.5452 69.1734 40.887 68.6361 40.889 67.7995C40.8951 65.6944 40.891 63.5903 40.891 61.4853C40.891 61.3055 40.891 61.1267 40.891 60.9228H43.3038C43.3038 61.1177 43.3038 61.2804 43.3038 61.4421C43.3038 63.5472 43.3079 65.6512 43.3028 67.7563C43.2967 70.242 41.9164 71.6371 39.389 71.6551C38.6557 71.6602 37.8961 71.6139 37.1912 71.4312C35.7135 71.0485 34.8098 70.0221 34.755 68.5246C34.6638 66.0088 34.7297 63.4869 34.7297 60.9148L34.7307 60.9158Z" fill="white"/>
<path d="M62.9196 85.7409V83.5072C63.3486 83.5595 63.7553 83.6358 64.164 83.6529C65.089 83.692 66.015 83.7222 66.9399 83.7161C67.374 83.7131 67.799 83.5856 67.8974 83.0724C67.9937 82.5712 67.729 82.2357 67.299 82.0258C66.3781 81.5749 65.444 81.1511 64.5281 80.6921C63.4713 80.1618 62.7573 79.3814 62.6944 78.1361C62.6092 76.4227 63.5423 75.2717 65.3628 75.1261C66.7959 75.0116 68.2473 75.103 69.7209 75.103V77.3918C68.5596 77.3537 67.4186 77.2984 66.2766 77.2864C65.8385 77.2814 65.3192 77.2211 65.1346 77.7906C65.0089 78.1772 65.2766 78.5388 65.9338 78.8662C66.8355 79.3151 67.7787 79.6918 68.6509 80.1909C70.0678 81.0004 70.5485 82.2488 70.158 83.8206C69.9329 84.7255 69.3497 85.299 68.4836 85.6113C67.3811 86.009 66.23 85.995 65.0849 85.9578C64.3659 85.9347 63.6508 85.8192 62.9186 85.7429L62.9196 85.7409Z" fill="white"/>
<path d="M66.1042 60.9419V63.1514C65.4531 63.1072 64.8223 63.044 64.1914 63.0259C63.5352 63.0068 62.873 62.9887 62.2229 63.055C61.9774 63.0801 61.6072 63.3121 61.5626 63.509C61.5068 63.753 61.6529 64.1437 61.8496 64.3215C62.1508 64.5936 62.5657 64.7463 62.9399 64.9351C63.6894 65.3138 64.4683 65.6412 65.1925 66.062C66.7838 66.986 66.9055 68.7104 66.3821 70.013C65.9268 71.1459 64.8852 71.5808 63.7817 71.626C62.376 71.6832 60.9612 71.5336 59.5514 71.4532C59.4571 71.4482 59.2979 71.2795 59.2938 71.1821C59.2705 70.5503 59.2816 69.9176 59.2816 69.2296C59.8729 69.2989 60.4155 69.3924 60.9612 69.4205C61.735 69.4596 62.5129 69.4807 63.2868 69.4526C63.7066 69.4375 64.1559 69.3301 64.2665 68.8199C64.3801 68.2956 64.0961 67.9561 63.6458 67.7392C62.8588 67.3586 62.0636 66.995 61.2776 66.6134C61.0058 66.4818 60.7441 66.3271 60.4875 66.1674C59.3009 65.4272 58.8678 64.3787 59.1427 62.9275C59.3526 61.8187 60.1275 61.1016 61.4673 60.8756C62.9957 60.6175 64.5261 60.738 66.1032 60.9419H66.1042Z" fill="white"/>
<path d="M25.904 71.5627V69.304C27.0906 69.3643 28.262 69.4315 29.4335 69.4757C29.6982 69.4858 29.9963 69.4777 30.2245 69.3673C30.469 69.2488 30.7935 69.0168 30.8209 68.8028C30.8554 68.5256 30.7114 68.1199 30.4974 67.9431C30.1312 67.6408 29.6546 67.4681 29.2205 67.2491C28.5146 66.8946 27.7854 66.5813 27.1028 66.1886C25.546 65.2947 25.403 63.736 25.9212 62.345C26.2215 61.5405 26.9121 61.0715 27.7245 60.9731C28.8888 60.8314 30.0714 60.8224 31.2469 60.7973C31.7134 60.7873 32.182 60.8837 32.681 60.9349V63.1464C31.8432 63.0942 31.0258 63.0269 30.2063 62.9988C29.7195 62.9817 29.2225 62.9827 28.7438 63.0581C28.5176 63.0932 28.187 63.2941 28.1474 63.4728C28.0937 63.7179 28.1921 64.0945 28.3706 64.2663C28.6505 64.5354 29.044 64.6951 29.403 64.8749C30.1535 65.2525 30.9406 65.5659 31.6617 65.9907C33.0694 66.8203 33.5836 68.2625 33.0562 69.7981C32.6039 71.1148 31.4913 71.5788 30.2469 71.6401C28.8239 71.7104 27.3929 71.5979 25.902 71.5627H25.904Z" fill="white"/>
<path d="M19.627 71.5145V63.1524H16.8217V60.9178H24.9668V63.1253H22.1037V71.5145H19.627Z" fill="white"/>
<path d="M36.755 77.4722H33.8676V75.2406H42.0431V77.4511H39.1678V85.8152H36.755V77.4712V77.4722Z" fill="white"/>
<path d="M55.1884 60.9208H57.5312V71.5025H55.1884V60.9208Z" fill="white"/>
<path d="M15.705 60.9429C15.705 61.1197 15.705 61.2834 15.705 61.4471C15.705 64.6198 15.6969 67.7925 15.7141 70.9652C15.7162 71.4101 15.6158 71.5929 15.131 71.5567C14.5478 71.5125 13.9596 71.5467 13.3358 71.5467V60.9439H15.705V60.9429Z" fill="white"/>
</g>
<defs>
<clipPath id="clip0_3_2798">
<rect width="81" height="86" fill="white"/>
</clipPath>
</defs>
</svg>
