<svg width="68" height="68" viewBox="0 0 68 68" fill="none" xmlns="http://www.w3.org/2000/svg">
<g clip-path="url(#clip0_3_2838)">
<rect width="68" height="68" fill="#0F0E3E"/>
<path d="M65.4855 27.2811C59.9654 33.4248 54.5909 39.4075 49.2164 45.3902C46.8292 48.0456 44.4785 50.7332 42.0276 53.3195C41.4729 53.904 40.5635 54.4747 39.8087 54.4885C33.9204 54.5851 28.0275 54.5391 21.4799 54.5391C29.337 45.2475 36.8805 36.3241 44.5467 27.2535C36.9896 18.3209 29.4643 9.41131 21.7436 0.276221C22.4347 0.16117 22.894 0.0231079 23.3532 0.0231079C28.6413 0.00930177 33.9295 -0.0229126 39.2176 0.0553223C40.0179 0.0691285 41.0546 0.395875 41.5684 0.957326C49.521 9.6276 57.401 18.3623 65.4855 27.2857V27.2811Z" fill="white"/>
<path d="M2.20071 36.8165C4.37416 33.4386 6.26116 30.5071 8.28001 27.3731C6.32936 24.3817 4.33324 21.3214 2.08704 17.879C5.10623 18.8086 7.74802 19.4069 10.2079 20.4424C12.3041 21.3214 13.4454 20.7323 14.5776 18.9467C15.9553 16.7745 17.574 14.7588 19.602 12.7063C19.602 15.4445 19.7111 18.192 19.5611 20.921C19.461 22.7388 20.0021 23.6454 21.8209 24.1148C24.5764 24.8281 27.25 25.8452 30.5238 26.9175C27.4273 28.1186 24.8037 29.2967 22.0801 30.1297C20.2477 30.6911 19.5929 31.5471 19.7384 33.4984C19.9385 36.1952 19.7884 38.9196 19.7884 42.2745C17.5968 39.4351 15.6961 37.1248 13.9728 34.6857C13.168 33.5444 12.4723 33.3327 11.1673 33.8251C8.3755 34.8836 5.49727 35.7258 2.19616 36.8073L2.20071 36.8165Z" fill="white"/>
<path d="M46.4019 67.7009H43.6874V57.7328C45.3879 57.7328 47.1067 57.6178 48.8027 57.7651C50.6033 57.9215 52.0765 60.0937 51.0808 61.8609C49.8576 64.0331 50.6397 65.6438 51.5264 67.5122C47.5523 68.8698 48.2253 64.797 46.4019 63.3888V67.7009Z" fill="white"/>
<path d="M59.7063 60.54H55.3003C55.2867 60.7655 55.2776 60.9864 55.2639 61.2119C56.1461 61.258 57.0327 61.3592 57.9148 61.3454C59.7063 61.3224 60.0565 62.4407 59.9519 63.9041C59.8427 65.455 60.5748 67.5444 58.0103 67.7469C56.1551 67.8941 54.2818 67.7745 52.3039 67.7745V65.1053C53.9726 65.027 55.5413 64.958 57.1146 64.8844C57.1146 64.6221 57.1146 64.3597 57.1146 64.0974C56.2143 64.0974 55.314 64.102 54.4137 64.0974C51.831 64.079 52.2175 62.1876 52.1811 60.5308C52.1447 58.9247 52.3993 57.6223 54.4455 57.6822C56.1597 57.7328 57.8785 57.6914 59.7109 57.6914V60.54H59.7063Z" fill="white"/>
<path d="M16.3827 62.7675C16.3827 63.6787 16.6328 64.6957 16.3145 65.4781C15.9644 66.3479 15.2233 67.4294 14.4366 67.6549C13.1862 68.0138 11.6994 67.977 10.4262 67.6503C9.69415 67.4616 8.76202 66.4307 8.66653 65.6806C8.421 63.7385 8.36644 61.709 8.69382 59.7899C8.83023 58.9892 10.0261 58.17 10.9173 57.7696C11.6766 57.4337 12.6952 57.6868 13.6 57.6914C15.4324 57.7006 16.3737 58.6302 16.4009 60.4849C16.41 61.2442 16.4009 62.0035 16.4009 62.7675C16.3964 62.7675 16.3918 62.7675 16.3873 62.7675H16.3827ZM11.3902 65.0363C12.2677 64.9627 12.8998 64.9074 13.5454 64.8522V60.5953H11.3902V65.0317V65.0363Z" fill="white"/>
<path d="M42.155 57.6362V60.4802H37.8536C37.84 60.7195 37.8309 60.9635 37.8172 61.2028C39.1995 61.2902 40.5772 61.3822 42.105 61.4789V64.1803H37.8036L37.7899 64.8384C39.2086 64.935 40.6227 65.0317 42.1368 65.1329V67.7791C39.9043 67.3603 36.8351 69.1321 35.6392 66.6056C34.6343 64.484 34.6207 61.1936 35.5392 59.0076C36.6805 56.2924 39.8133 58.1838 42.155 57.6362Z" fill="white"/>
<path d="M67.9454 67.8942C65.6174 67.2913 62.53 69.1413 61.4478 66.5411C60.5339 64.3414 60.9749 61.396 61.3887 58.8787C61.6206 57.4751 63.3894 57.3738 67.9591 57.8755V60.3698C67.2088 60.4066 66.4768 60.4296 65.7447 60.4756C65.0581 60.5171 64.3715 60.5815 63.6849 60.6367C63.6849 60.8484 63.6804 61.0555 63.6758 61.2672C65.0808 61.3316 66.4904 61.3914 67.9954 61.4605V64.0836H63.6713C63.6576 64.3184 63.6394 64.5577 63.6258 64.7924C65.0081 64.912 66.3949 65.0271 67.9409 65.1605V67.8942H67.9454Z" fill="white"/>
<path d="M22.8122 60.5677H20.4842V67.6549C19.5293 67.7055 18.7518 67.7469 17.8105 67.7975V57.7144C19.4656 57.7144 21.1071 57.6454 22.7349 57.7328C24.4719 57.8249 25.263 58.98 25.3131 60.6091C25.3813 62.8825 25.3312 65.1559 25.3312 67.6134C24.5128 67.6871 23.7989 67.7469 22.8122 67.8343V60.5631V60.5677Z" fill="white"/>
<path d="M25.4358 57.8249C30.2738 57.0747 28.1049 61.8747 30.2829 63.1817C30.8149 61.5019 31.3696 59.7439 31.9652 57.8433H34.6843C33.6749 61.1752 32.7064 64.3552 31.747 67.5168C29.6433 67.9249 28.2928 67.1287 27.6956 65.1283C26.9727 62.7399 26.227 60.3652 25.4403 57.8203L25.4358 57.8249Z" fill="white"/>
<path d="M7.30705 57.6408V60.3468C5.92477 60.425 4.53339 60.5032 2.98288 60.5953V64.935H7.25703V67.8343C4.9699 67.2775 1.87796 69.2149 0.691201 66.4675C-0.227288 64.3414 -0.236382 61.1705 0.67756 59.0444C1.84613 56.32 4.95171 58.1746 7.30705 57.6408Z" fill="white"/>
</g>
<defs>
<clipPath id="clip0_3_2838">
<rect width="68" height="68" fill="white"/>
</clipPath>
</defs>
</svg>
