<svg width="24" height="24" viewBox="0 0 24 24" fill="none" xmlns="http://www.w3.org/2000/svg">
<path d="M15.35 20.2999C15.0167 20.4333 14.7083 20.3916 14.425 20.1749C14.1417 19.9583 14 19.6583 14 19.2749C14 19.0916 14.0543 18.9293 14.163 18.7879C14.271 18.6459 14.4083 18.5416 14.575 18.4749C15.9083 17.9416 16.9793 17.0916 17.788 15.9249C18.596 14.7583 19 13.4416 19 11.9749C19 10.5083 18.596 9.19159 17.788 8.02492C16.9793 6.85825 15.9083 6.00825 14.575 5.47492C14.3917 5.40825 14.25 5.29992 14.15 5.14992C14.05 4.99992 14 4.83325 14 4.64992C14 4.28325 14.1417 3.99159 14.425 3.77492C14.7083 3.55825 15.0167 3.51659 15.35 3.64992C17.05 4.33325 18.4167 5.42492 19.45 6.92492C20.4833 8.42492 21 10.1083 21 11.9749C21 13.8416 20.4833 15.5249 19.45 17.0249C18.4167 18.5249 17.05 19.6166 15.35 20.2999ZM4 14.9999C3.71667 14.9999 3.47933 14.9039 3.288 14.7119C3.096 14.5206 3 14.2833 3 13.9999V9.99992C3 9.71659 3.096 9.47892 3.288 9.28692C3.47933 9.09559 3.71667 8.99992 4 8.99992H7L10.3 5.69992C10.6167 5.38325 10.979 5.31225 11.387 5.48692C11.7957 5.66225 12 5.97492 12 6.42492V17.5749C12 18.0249 11.7957 18.3373 11.387 18.5119C10.979 18.6873 10.6167 18.6166 10.3 18.2999L7 14.9999H4ZM14 15.9999V7.94992C14.75 8.29992 15.354 8.84159 15.812 9.57492C16.2707 10.3083 16.5 11.1166 16.5 11.9999C16.5 12.8833 16.2707 13.6833 15.812 14.3999C15.354 15.1166 14.75 15.6499 14 15.9999Z" fill="white"/>
</svg>
