<svg width="24" height="24" viewBox="0 0 24 24" fill="none" xmlns="http://www.w3.org/2000/svg">
<path d="M19.1 21.9001L16.775 19.5751C16.5416 19.7084 16.3083 19.8374 16.075 19.9621C15.8416 20.0874 15.6 20.2001 15.35 20.3001C15.0166 20.4334 14.7083 20.3918 14.425 20.1751C14.1416 19.9584 14 19.6584 14 19.2751C14 19.0918 14.0543 18.9294 14.163 18.7881C14.271 18.6461 14.4083 18.5418 14.575 18.4751C14.7083 18.4251 14.8376 18.3708 14.963 18.3121C15.0876 18.2541 15.2083 18.1918 15.325 18.1251L12 14.8001V17.5751C12 18.0251 11.7956 18.3374 11.387 18.5121C10.979 18.6874 10.6166 18.6168 10.3 18.3001L6.99995 15.0001H3.99995C3.71662 15.0001 3.47928 14.9041 3.28795 14.7121C3.09595 14.5208 2.99995 14.2834 2.99995 14.0001V10.0001C2.99995 9.71676 3.09595 9.4791 3.28795 9.2871C3.47928 9.09576 3.71662 9.0001 3.99995 9.0001H6.19995L2.09995 4.9001C1.91662 4.71676 1.82495 4.48343 1.82495 4.2001C1.82495 3.91676 1.91662 3.68343 2.09995 3.5001C2.28328 3.31676 2.51662 3.2251 2.79995 3.2251C3.08328 3.2251 3.31662 3.31676 3.49995 3.5001L20.5 20.5001C20.6833 20.6834 20.775 20.9168 20.775 21.2001C20.775 21.4834 20.6833 21.7168 20.5 21.9001C20.3166 22.0834 20.0833 22.1751 19.7999 22.1751C19.5166 22.1751 19.2833 22.0834 19.1 21.9001ZM15.35 3.6501C17.05 4.33343 18.4166 5.4251 19.45 6.9251C20.4833 8.4251 21 10.1084 21 11.9751C21 12.8584 20.8793 13.7084 20.638 14.5251C20.396 15.3418 20.05 16.1001 19.6 16.8001L18.15 15.3501C18.4333 14.8334 18.646 14.2918 18.788 13.7251C18.9293 13.1584 19 12.5751 19 11.9751C19 10.5084 18.596 9.19176 17.788 8.0251C16.9793 6.85843 15.9083 6.00843 14.575 5.4751C14.3916 5.40843 14.25 5.3001 14.15 5.1501C14.05 5.0001 14 4.83343 14 4.6501C14 4.28343 14.1416 3.99176 14.425 3.7751C14.7083 3.55843 15.0166 3.51676 15.35 3.6501ZM16.25 13.4501L14 11.2001V7.9501C14.7833 8.31676 15.396 8.86677 15.838 9.6001C16.2793 10.3334 16.5 11.1334 16.5 12.0001C16.5 12.2501 16.4793 12.4961 16.438 12.7381C16.396 12.9794 16.3333 13.2168 16.25 13.4501ZM12 9.2001L9.39995 6.6001L10.3 5.7001C10.6166 5.38343 10.979 5.31243 11.387 5.4871C11.7956 5.66243 12 5.9751 12 6.4251V9.2001Z" fill="white"/>
</svg>
